<svg width="20" height="20" viewBox="0 0 20 20" fill="none" xmlns="http://www.w3.org/2000/svg">
<path d="M11.0625 18.3334C10.7431 18.3334 10.5104 18.2292 10.3646 18.0209C10.2187 17.8125 10.2014 17.5556 10.3125 17.25L13.375 9.12502C13.4583 8.9028 13.6111 8.7153 13.8333 8.56252C14.0556 8.40974 14.2847 8.33335 14.5208 8.33335C14.7569 8.33335 14.9896 8.40974 15.2187 8.56252C15.4479 8.7153 15.6042 8.9028 15.6875 9.12502L18.8125 17.1667C18.9375 17.4861 18.9236 17.7604 18.7708 17.9896C18.6181 18.2188 18.3611 18.3334 18 18.3334C17.8472 18.3334 17.7014 18.2847 17.5625 18.1875C17.4236 18.0903 17.3264 17.9653 17.2708 17.8125L16.5833 15.7084H12.5833L11.7917 17.8334C11.7361 17.9722 11.6389 18.0903 11.5 18.1875C11.3611 18.2847 11.2153 18.3334 11.0625 18.3334V18.3334ZM13.0417 14.25H16L14.5417 10.2084H14.5L13.0417 14.25ZM6.02083 7.12502C6.22917 7.48613 6.45833 7.83683 6.70833 8.1771C6.95833 8.51738 7.22916 8.86808 7.52083 9.22919C8.14583 8.57641 8.66666 7.89933 9.08333 7.19794C9.5 6.49655 9.85417 5.76391 10.1458 5.00002H1.66667C1.43055 5.00002 1.23264 4.92016 1.07292 4.76044C0.913193 4.60071 0.833332 4.4028 0.833332 4.16669C0.833332 3.93058 0.913193 3.73266 1.07292 3.57294C1.23264 3.41321 1.43055 3.33335 1.66667 3.33335H6.66667V2.50002C6.66667 2.26391 6.74653 2.06599 6.90625 1.90627C7.06597 1.74655 7.26389 1.66669 7.5 1.66669C7.73611 1.66669 7.93403 1.74655 8.09375 1.90627C8.25347 2.06599 8.33333 2.26391 8.33333 2.50002V3.33335H13.3333C13.5694 3.33335 13.7674 3.41321 13.9271 3.57294C14.0868 3.73266 14.1667 3.93058 14.1667 4.16669C14.1667 4.4028 14.0868 4.60071 13.9271 4.76044C13.7674 4.92016 13.5694 5.00002 13.3333 5.00002H11.8125C11.5069 5.95835 11.1007 6.89933 10.5937 7.82294C10.0868 8.74655 9.46528 9.62502 8.72917 10.4584L10.7708 12.5209L10.1458 14.2084L7.5 11.6667L3.89583 15.2709C3.74305 15.4236 3.55555 15.5 3.33333 15.5C3.11111 15.5 2.92361 15.4167 2.77083 15.25C2.60417 15.0972 2.52083 14.9097 2.52083 14.6875C2.52083 14.4653 2.60417 14.2709 2.77083 14.1042L6.4375 10.4375C6.07639 10.007 5.73611 9.57294 5.41667 9.13544C5.09722 8.69794 4.80555 8.25002 4.54167 7.79169C4.375 7.48613 4.36111 7.22224 4.5 7.00002C4.63889 6.7778 4.88889 6.66669 5.25 6.66669C5.40278 6.66669 5.55208 6.71183 5.69792 6.8021C5.84375 6.89238 5.95139 7.00002 6.02083 7.12502V7.12502Z" fill="url(#paint0_linear_222_79)"/>
<defs>
<linearGradient id="paint0_linear_222_79" x1="4.38681" y1="4.26232" x2="16.0063" y2="16.263" gradientUnits="userSpaceOnUse">
<stop stop-color="#01D1FF"/>
<stop offset="1" stop-color="#F22982"/>
</linearGradient>
</defs>
</svg>
