<svg width="123" height="26" viewBox="0 0 123 26" fill="none" xmlns="http://www.w3.org/2000/svg">
<path d="M7.14195 19.8968H13.5445V24.9207H0.5V3.74843H7.14195V19.8968Z" fill="#141414"/>
<path d="M33.4961 8.05465V24.9207H26.8542V22.3489C26.3356 23.1464 25.6375 23.7943 24.7598 24.2927C23.9022 24.7911 22.875 25.0403 21.6782 25.0403C19.7435 25.0403 18.2276 24.3924 17.1306 23.0965C16.0535 21.8007 15.515 20.0463 15.515 17.8334V8.05465H22.127V16.996C22.127 17.7935 22.3364 18.4314 22.7553 18.9099C23.1941 19.3684 23.7725 19.5977 24.4906 19.5977C25.2286 19.5977 25.807 19.3684 26.2259 18.9099C26.6447 18.4314 26.8542 17.7935 26.8542 16.996V8.05465H33.4961Z" fill="#141414"/>
<path d="M35.5984 16.4877C35.5984 14.7333 35.9574 13.2082 36.6754 11.9123C37.4134 10.5965 38.4307 9.58973 39.7271 8.89197C41.0436 8.1942 42.5395 7.84532 44.2149 7.84532C46.409 7.84532 48.254 8.46334 49.7499 9.69938C51.2658 10.9354 52.2232 12.6499 52.6221 14.8429H45.5912C45.3319 13.9657 44.8233 13.5271 44.0653 13.5271C43.5268 13.5271 43.098 13.7763 42.7788 14.2747C42.4797 14.7731 42.3301 15.5108 42.3301 16.4877C42.3301 17.4645 42.4797 18.2022 42.7788 18.7006C43.098 19.199 43.5268 19.4482 44.0653 19.4482C44.8233 19.4482 45.3319 19.0096 45.5912 18.1324H52.6221C52.2232 20.3254 51.2658 22.0399 49.7499 23.2759C48.254 24.512 46.409 25.13 44.2149 25.13C42.5395 25.13 41.0436 24.7811 39.7271 24.0834C38.4307 23.3856 37.4134 22.3888 36.6754 21.0929C35.9574 19.7771 35.5984 18.242 35.5984 16.4877Z" fill="#141414"/>
<path d="M58.0785 6.70895C56.9217 6.70895 55.9942 6.39994 55.2961 5.78192C54.598 5.1639 54.2489 4.38639 54.2489 3.44938C54.2489 2.49245 54.598 1.70497 55.2961 1.08694C55.9942 0.448984 56.9217 0.130005 58.0785 0.130005C59.2154 0.130005 60.1329 0.448984 60.831 1.08694C61.5291 1.70497 61.8782 2.49245 61.8782 3.44938C61.8782 4.38639 61.5291 5.1639 60.831 5.78192C60.1329 6.39994 59.2154 6.70895 58.0785 6.70895ZM61.3696 8.05465V24.9207H54.7276V8.05465H61.3696Z" fill="#141414"/>
<path d="M63.4718 16.4877C63.4718 14.7133 63.771 13.1783 64.3694 11.8824C64.9877 10.5666 65.8254 9.5698 66.8826 8.89197C67.9397 8.1942 69.1265 7.84532 70.4429 7.84532C71.5399 7.84532 72.4873 8.07458 73.2852 8.53311C74.083 8.97171 74.6913 9.57977 75.1102 10.3573V8.05465H81.7222V24.9207H75.1102V22.618C74.6913 23.3956 74.083 24.0136 73.2852 24.4721C72.4873 24.9107 71.5399 25.13 70.4429 25.13C69.1265 25.13 67.9397 24.7911 66.8826 24.1133C65.8254 23.4155 64.9877 22.4187 64.3694 21.1228C63.771 19.807 63.4718 18.262 63.4718 16.4877ZM75.1102 16.4877C75.1102 15.5905 74.8808 14.8928 74.4221 14.3944C73.9633 13.896 73.3749 13.6468 72.6569 13.6468C71.9388 13.6468 71.3504 13.896 70.8917 14.3944C70.4329 14.8928 70.2035 15.5905 70.2035 16.4877C70.2035 17.3848 70.4329 18.0826 70.8917 18.581C71.3504 19.0794 71.9388 19.3286 72.6569 19.3286C73.3749 19.3286 73.9633 19.0794 74.4221 18.581C74.8808 18.0826 75.1102 17.3848 75.1102 16.4877Z" fill="#141414"/>
<path d="M96.5226 7.93503C98.4574 7.93503 99.9633 8.58296 101.04 9.87881C102.137 11.1747 102.686 12.929 102.686 15.142V24.9207H96.0738V15.9793C96.0738 15.1818 95.8544 14.5538 95.4156 14.0953C94.9968 13.6168 94.4283 13.3776 93.7103 13.3776C92.9723 13.3776 92.3938 13.6168 91.975 14.0953C91.5561 14.5538 91.3467 15.1818 91.3467 15.9793V24.9207H84.7047V8.05465H91.3467V10.6264C91.8653 9.82897 92.5534 9.18104 93.4111 8.68264C94.2887 8.18423 95.3259 7.93503 96.5226 7.93503Z" fill="#141414"/>
<path d="M113.584 25.13C111.889 25.13 110.363 24.7811 109.007 24.0834C107.65 23.3856 106.583 22.3888 105.805 21.0929C105.047 19.7771 104.668 18.242 104.668 16.4877C104.668 14.7333 105.047 13.2082 105.805 11.9123C106.583 10.5965 107.65 9.58973 109.007 8.89197C110.363 8.1942 111.889 7.84532 113.584 7.84532C115.28 7.84532 116.805 8.1942 118.162 8.89197C119.518 9.58973 120.575 10.5965 121.333 11.9123C122.111 13.2082 122.5 14.7333 122.5 16.4877C122.5 18.242 122.111 19.7771 121.333 21.0929C120.575 22.3888 119.518 23.3856 118.162 24.0834C116.805 24.7811 115.28 25.13 113.584 25.13ZM113.584 19.3884C114.203 19.3884 114.721 19.1491 115.14 18.6707C115.559 18.1723 115.768 17.4446 115.768 16.4877C115.768 15.5307 115.559 14.813 115.14 14.3346C114.721 13.8361 114.203 13.5869 113.584 13.5869C112.966 13.5869 112.447 13.8361 112.028 14.3346C111.61 14.813 111.4 15.5307 111.4 16.4877C111.4 17.4446 111.6 18.1723 111.999 18.6707C112.417 19.1491 112.946 19.3884 113.584 19.3884Z" fill="#141414"/>
</svg>
