<svg width="469" height="469" viewBox="0 0 469 469" fill="none" xmlns="http://www.w3.org/2000/svg">
<path d="M386.756 232.502C302.12 183.632 165.388 183.632 81.2496 232.502C-2.88904 281.372 -2.40129 360.595 82.1876 409.465C166.776 458.335 303.621 458.335 387.713 409.465C471.805 360.595 471.401 281.4 386.756 232.502Z" fill="#F5F5F5"/>
<path d="M44.9583 335.541C51.2148 331.921 61.3358 331.921 67.5548 335.541C73.7737 339.162 73.7362 345.015 67.4797 348.626C61.2233 352.238 51.1022 352.247 44.8833 348.626C38.6644 345.006 38.6925 339.153 44.9583 335.541Z" fill="#E0E0E0"/>
<path d="M411.895 309.728C418.461 305.976 429.069 305.976 435.598 309.728C442.126 313.48 442.079 319.661 435.523 323.451C428.966 327.24 418.339 327.203 411.82 323.451C405.3 319.699 405.329 313.517 411.895 309.728Z" fill="#E0E0E0"/>
<path d="M308.33 244.48L67.8643 384.899L57.6776 379.018L298.143 238.599L308.33 244.48Z" fill="#E0E0E0"/>
<path d="M372.264 318.92C348.814 305.385 310.947 305.385 287.666 318.92C267.086 330.87 264.807 349.386 280.715 362.875C267.874 362.077 254.573 364.526 244.771 370.219C227.559 380.218 227.653 396.436 244.968 406.435C262.284 416.434 290.283 416.434 307.486 406.435C321.181 398.481 323.91 386.587 315.731 377.029C335.429 379.843 357.172 376.851 372.536 367.921C395.836 354.414 395.705 332.474 372.264 318.92Z" fill="#E0E0E0"/>
<path d="M107.016 87.4872L107.091 112.635L110.14 114.408L110.056 85.7332L107.016 87.4872Z" fill="#F0F0F0"/>
<path d="M74.1864 131.639L74.1958 135.166L110.14 114.408L107.091 112.635L74.1864 131.639Z" fill="#F5F5F5"/>
<path d="M113.732 79.3829L70.4157 104.39L70.5188 141.525L113.836 116.518L113.732 79.3829ZM74.1958 135.166V131.639L74.102 106.491L107.007 87.4873L110.046 85.7332L110.131 114.408L74.1958 135.166Z" fill="#E0E0E0"/>
<path d="M113.732 79.3829L110.684 77.6101L67.3672 102.617L70.4157 104.39L113.732 79.3829Z" fill="#F5F5F5"/>
<path d="M67.3672 102.617L67.4703 139.753L70.5188 141.525L70.4157 104.39L67.3672 102.617Z" fill="#F0F0F0"/>
<path d="M365.492 159.047L365.417 184.204L362.368 185.968L362.453 157.293L365.492 159.047Z" fill="#F0F0F0"/>
<path d="M398.331 203.199L398.322 206.726L362.368 185.968L365.417 184.204L398.331 203.199Z" fill="#F5F5F5"/>
<path d="M358.682 188.078L401.989 213.085L402.092 175.95L358.785 150.943L358.682 188.078ZM362.378 185.968L362.453 157.293L365.492 159.047L398.397 178.051L398.331 203.199V206.726L362.378 185.968Z" fill="#E0E0E0"/>
<path d="M358.785 150.943L361.834 149.17L405.141 174.177L402.092 175.95L358.785 150.943Z" fill="#F5F5F5"/>
<path d="M405.141 174.177L405.038 211.313L401.989 213.085L402.092 175.95L405.141 174.177Z" fill="#F0F0F0"/>
<path d="M171.457 113.273V107.167L171.176 107.326L170.669 107.626C166.157 110.356 161.627 114.633 157.415 119.267C156.712 120.026 156.027 120.805 155.342 121.584C151.787 125.654 148.317 129.969 144.733 134.003V143.87L149.039 141.385C154.65 130.67 162.259 121.127 171.457 113.273Z" fill="#EBEBEB"/>
<path d="M171.504 128.422V120.261C167.762 124.237 164.672 128.78 162.349 133.721L171.504 128.422Z" fill="#EBEBEB"/>
<path d="M162.321 133.721C164.644 128.78 167.733 124.237 171.476 120.261V113.273C162.279 121.137 154.672 130.689 149.067 141.413L162.34 133.749L162.321 133.721Z" fill="#FAFAFA"/>
<path d="M153.316 104.859L153.945 104.643C155.095 104.231 156.258 103.752 157.434 103.208L157.865 103.002L159.047 102.42C159.732 102.073 160.407 101.707 161.092 101.323C160.407 101.707 159.732 102.073 159.047 102.42L159.301 102.298C159.891 101.989 160.492 101.66 161.092 101.36L161.477 101.145L161.796 100.957C165.05 99.038 168.131 96.8411 171.007 94.3909L171.401 94.0439V83.7259C164.835 87.0745 158.409 88.1157 153.213 86.5399C149.613 85.3684 146.548 82.9545 144.565 79.73L144.64 106.547C147.597 106.397 150.518 105.828 153.316 104.859Z" fill="#FAFAFA"/>
<path d="M157.396 119.267C161.608 114.633 166.139 110.356 170.65 107.626L171.157 107.326L171.438 107.166V101.257C162.681 106.398 154.566 112.564 147.266 119.623C146.394 120.458 145.521 121.302 144.649 122.118V134.003C148.232 129.969 151.703 125.654 155.258 121.584C156.008 120.805 156.693 120.064 157.396 119.267Z" fill="#FAFAFA"/>
<path d="M171.419 101.304V94.0251L171.026 94.3722C168.15 96.8224 165.068 99.0193 161.814 100.938L161.495 101.126L161.111 101.342C160.511 101.679 159.91 102.008 159.319 102.28L159.066 102.401L158.907 102.486L159.066 102.401L157.884 102.983L157.453 103.189C156.283 103.733 155.12 104.212 153.963 104.625L154.62 104.381L153.963 104.625L153.335 104.84C150.538 105.819 147.617 106.397 144.658 106.557L144.705 122.099C145.578 121.283 146.45 120.439 147.322 119.604C154.603 112.573 162.692 106.43 171.419 101.304Z" fill="#EBEBEB"/>
<path d="M171.354 75.312V67.6766C167.217 66.7386 164.009 63.6995 162.321 59.1877L153.175 64.4687C154.777 67.8837 157.365 70.7413 160.604 72.6737C163.844 74.6061 167.588 75.5249 171.354 75.312Z" fill="#FAFAFA"/>
<path d="M153.185 86.4368C158.381 88.0501 164.825 87.0089 171.373 83.6228V75.2746C167.602 75.4933 163.852 74.5772 160.607 72.6444C157.362 70.7117 154.77 67.851 153.166 64.4313L144.536 69.4121V79.7301C146.538 82.9159 149.601 85.2914 153.185 86.4368Z" fill="#EBEBEB"/>
<path d="M172.789 51.3931L143.017 68.5866L143.242 146.441L173.014 129.256L172.789 51.3931ZM144.743 143.87V134.003V122.118L144.696 106.576L144.565 79.73V69.412L153.175 64.4406L162.274 59.1878L171.269 53.9913V67.6767V75.3121V83.6603V93.9783V101.257V107.167V113.273V120.261V128.422L162.086 133.721L148.814 141.385L144.743 143.87Z" fill="white"/>
<path d="M171.326 67.6768V53.9913L162.274 59.1878C163.981 63.6996 167.189 66.7106 171.326 67.6768Z" fill="#EBEBEB"/>
<path d="M173.014 129.275L143.242 146.469V148.542L174.796 130.316L173.014 129.275Z" fill="#CACACA"/>
<path d="M172.789 51.393L173.014 129.275L174.796 130.316L174.571 50.3706L172.789 51.393Z" fill="#F0F0F0"/>
<path d="M179.364 42.0787L138.196 65.8383L138.458 156.824L179.618 133.055L179.364 42.0787ZM143.242 148.542V146.469L143.017 68.6148L172.789 51.4212L174.571 50.3988L174.806 130.345L143.242 148.542Z" fill="#E0E0E0"/>
<path d="M179.364 42.0787L175.969 40.2496L134.809 64.0186L138.205 65.8383L179.364 42.0787Z" fill="#F5F5F5"/>
<path d="M134.809 64.0186L135.063 155.005L138.458 156.824L138.205 65.8383L134.809 64.0186Z" fill="#F0F0F0"/>
<path d="M96.5671 97.0361L105.534 104.099L105.553 111.003L75.706 128.243L75.6872 121.34L81.3809 110.037L86.4836 114.005L84.6826 119.614L87.2997 114.633L96.5671 97.0361Z" fill="#E0E0E0"/>
<path d="M86.7556 100.516C88.1626 99.7094 89.307 100.357 89.3164 101.97C89.2658 102.85 89.0095 103.705 88.568 104.468C88.1265 105.23 87.5121 105.878 86.7744 106.36C85.3674 107.176 84.2324 106.519 84.223 104.906C84.2725 104.027 84.5274 103.172 84.9672 102.41C85.4071 101.647 86.0196 100.999 86.7556 100.516Z" fill="#E0E0E0"/>
<path d="M375.95 168.596L366.974 175.669L366.955 182.572L396.802 199.803L396.821 192.9L391.137 181.597L386.025 185.565L387.835 191.174L385.208 186.193L375.95 168.596Z" fill="#E0E0E0"/>
<path d="M385.753 172.076C384.346 171.269 383.201 171.917 383.201 173.53C383.249 174.41 383.503 175.267 383.943 176.031C384.383 176.795 384.997 177.446 385.734 177.929C387.141 178.736 388.285 178.089 388.285 176.466C388.24 175.586 387.987 174.729 387.547 173.966C387.107 173.203 386.492 172.555 385.753 172.076Z" fill="#E0E0E0"/>
<path d="M41.0563 314.737L56.2143 315.187L71.3724 314.737C72.029 324.979 70.0311 335.373 67.2734 340.503C66.6198 341.813 65.5693 342.883 64.2718 343.561C59.7881 346.122 52.528 346.122 48.1194 343.561C46.8028 342.874 45.7483 341.773 45.1178 340.428C42.3882 335.297 40.409 324.923 41.0563 314.737Z" fill="white"/>
<path d="M45.5305 308.536C39.593 311.96 39.5648 317.522 45.4649 320.946C51.3649 324.37 60.9606 324.379 66.8982 320.946C72.8357 317.513 72.8732 311.96 66.9732 308.536C61.0732 305.113 51.4774 305.103 45.5305 308.536Z" fill="#EBEBEB"/>
<path d="M47.8849 309.896C43.2512 312.57 43.1949 316.913 47.8286 319.586C52.4623 322.259 59.9194 322.259 64.5532 319.586C69.1869 316.913 69.2432 312.57 64.6094 309.896C59.9757 307.223 52.528 307.223 47.8849 309.896Z" fill="#E0E0E0"/>
<g opacity="0.15">
<path d="M47.8849 309.896C43.2512 312.57 43.1949 316.913 47.8286 319.586C52.4623 322.259 59.9194 322.259 64.5532 319.586C69.1869 316.913 69.2432 312.57 64.6094 309.896C59.9757 307.223 52.528 307.223 47.8849 309.896Z" fill="black"/>
</g>
<path d="M31.2917 250.061C65.4536 261.242 65.7632 284.092 58.0622 300.366C56.1205 303.668 50.2393 305.432 45.1272 285.19L54.1038 286.343L43.6451 281.044L40.9249 272.958L49.6483 273.605L38.5799 268.915C36.5401 262.487 34.1061 256.19 31.2917 250.061Z" fill="#5BD7F3"/>
<path opacity="0.2" d="M31.2917 250.061C65.4536 261.242 65.7632 284.092 58.0622 300.366C56.1205 303.668 50.2393 305.432 45.1272 285.19L54.1038 286.343L43.6451 281.044L40.9249 272.958L49.6483 273.605L38.5799 268.915C36.5401 262.487 34.1061 256.19 31.2917 250.061Z" fill="black"/>
<path opacity="0.2" d="M31.2917 250.061C65.4536 261.242 65.7632 284.092 58.0622 300.366C56.1205 303.668 50.2393 305.432 45.1272 285.19L54.1038 286.343L43.6451 281.044L40.9249 272.958L49.6483 273.605L38.5799 268.915C36.5401 262.487 34.1061 256.19 31.2917 250.061Z" fill="white"/>
<path d="M40.9531 255.774C58.9721 269.45 60.5948 285.152 55.5108 301.483C57.3118 287.075 59.2535 272.508 40.9531 255.774Z" fill="white"/>
<path d="M89.1569 273.277C55.4827 278.014 51.393 299.241 55.8673 315.684C57.1242 319.07 62.302 321.696 70.4344 303.696L61.908 303.274L72.5262 300.076L76.4001 292.966L68.1738 292.121L79.2516 289.626C82.2103 283.976 85.5185 278.516 89.1569 273.277Z" fill="#5BD7F3"/>
<path opacity="0.2" d="M89.1569 273.277C55.4827 278.014 51.393 299.241 55.8673 315.684C57.1242 319.07 62.302 321.696 70.4344 303.696L61.908 303.274L72.5262 300.076L76.4001 292.966L68.1738 292.121L79.2516 289.626C82.2103 283.976 85.5185 278.516 89.1569 273.277Z" fill="white"/>
<path opacity="0.1" d="M89.1569 273.277C55.4827 278.014 51.393 299.241 55.8673 315.684C57.1242 319.07 62.302 321.696 70.4344 303.696L61.908 303.274L72.5262 300.076L76.4001 292.966L68.1738 292.121L79.2516 289.626C82.2103 283.976 85.5185 278.516 89.1569 273.277Z" fill="black"/>
<path d="M79.2047 276.991C60.1539 286.728 56.0361 301.098 58.0622 317.147C58.7751 303.424 59.3848 289.532 79.2047 276.991Z" fill="white"/>
<path d="M21.4427 281.231C52.3216 281.738 58.3811 300.413 56.1487 315.721C55.3983 318.92 51.0178 321.865 41.6847 306.557L49.3388 305.216L39.4054 303.527L35.1187 297.552L42.4351 295.873L32.1734 294.86C28.8798 290.101 25.2961 285.549 21.4427 281.231Z" fill="#5BD7F3"/>
<path d="M30.8227 283.464C49.0762 290.114 54.404 302.561 54.404 317.288C52.1903 305.009 50.0892 292.553 30.8227 283.464Z" fill="white"/>
<path opacity="0.2" d="M21.4427 281.231C52.3216 281.738 58.3811 300.413 56.1487 315.721C55.3983 318.92 51.0178 321.865 41.6847 306.557L49.3388 305.216L39.4054 303.527L35.1187 297.552L42.4351 295.873L32.1734 294.86C28.8798 290.101 25.2961 285.549 21.4427 281.231Z" fill="white"/>
<path d="M407.814 287.91L423.704 288.379L439.65 287.91C440.335 298.65 438.243 309.587 435.354 314.934C434.671 316.305 433.571 317.425 432.212 318.132C427.522 320.843 419.943 320.843 415.328 318.132C413.946 317.415 412.841 316.261 412.185 314.849C409.203 309.474 407.092 298.594 407.814 287.91Z" fill="white"/>
<path d="M412.504 281.4C406.276 285.002 406.238 290.827 412.429 294.429C418.62 298.031 428.685 298.021 434.941 294.429C441.198 290.836 441.198 285.002 435.016 281.4C428.835 277.798 418.733 277.807 412.504 281.4Z" fill="#EBEBEB"/>
<path d="M414.971 282.835C410.112 285.649 410.084 290.189 414.906 292.994C419.727 295.798 427.587 295.808 432.446 292.994C437.305 290.18 437.333 285.64 432.502 282.835C427.672 280.031 419.83 280.031 414.971 282.835Z" fill="#E0E0E0"/>
<g opacity="0.15">
<path d="M414.971 282.835C410.112 285.649 410.084 290.189 414.906 292.994C419.727 295.798 427.587 295.808 432.446 292.994C437.305 290.18 437.333 285.64 432.502 282.835C427.672 280.031 419.83 280.031 414.971 282.835Z" fill="black"/>
</g>
<path d="M431.818 255.38C434.397 252.172 437.399 249.292 439.772 245.915C441.395 243.608 442.745 240.794 442.061 238.064C441.682 236.81 440.961 235.686 439.978 234.819C438.996 233.952 437.79 233.377 436.498 233.159C433.876 232.764 431.202 233.359 428.994 234.828C426.824 236.284 424.92 238.102 423.366 240.203C414.419 251.536 410.186 265.881 411.548 280.256C411.582 281.903 412.097 283.503 413.03 284.861C413.598 285.533 414.347 286.028 415.189 286.286C416.031 286.543 416.929 286.554 417.776 286.315C422.109 285.03 421.528 279.177 422.241 275.744C423.766 268.294 427.042 261.313 431.799 255.38H431.818Z" fill="#5BD7F3"/>
<path opacity="0.2" d="M431.818 255.38C434.397 252.172 437.399 249.292 439.772 245.915C441.395 243.608 442.745 240.794 442.061 238.064C441.682 236.81 440.961 235.686 439.978 234.819C438.996 233.952 437.79 233.377 436.498 233.159C433.876 232.764 431.202 233.359 428.994 234.828C426.824 236.284 424.92 238.102 423.366 240.203C414.419 251.536 410.186 265.881 411.548 280.256C411.582 281.903 412.097 283.503 413.03 284.861C413.598 285.533 414.347 286.028 415.189 286.286C416.031 286.543 416.929 286.554 417.776 286.315C422.109 285.03 421.528 279.177 422.241 275.744C423.766 268.294 427.042 261.313 431.799 255.38H431.818Z" fill="white"/>
<path d="M417.523 281.953C417.606 281.937 417.682 281.893 417.738 281.828C417.795 281.764 417.828 281.682 417.832 281.597C418.132 274.646 420.393 250.924 436.742 237.511C436.782 237.48 436.814 237.441 436.839 237.397C436.863 237.354 436.878 237.305 436.883 237.256C436.888 237.206 436.884 237.155 436.869 237.107C436.855 237.059 436.831 237.015 436.799 236.976C436.734 236.899 436.643 236.85 436.543 236.839C436.443 236.829 436.343 236.858 436.264 236.92C419.671 250.587 417.382 274.581 417.072 281.616C417.07 281.716 417.107 281.814 417.175 281.887C417.243 281.961 417.338 282.005 417.438 282.01L417.523 281.953Z" fill="#F0F0F0"/>
<path d="M415.14 282.713C415.484 284.233 416.132 285.668 417.044 286.932C417.957 288.195 419.115 289.262 420.449 290.067C422.949 291.253 425.728 291.72 428.478 291.418C431.265 291.098 434.005 290.45 436.639 289.486C437.943 289.045 439.406 288.444 439.547 286.822C439.57 286.394 439.497 285.968 439.335 285.572C439.173 285.176 438.925 284.821 438.609 284.533C438.34 284.275 438.059 284.03 437.765 283.801C437.628 283.699 437.527 283.558 437.473 283.397C437.419 283.235 437.416 283.061 437.464 282.898C437.512 282.735 437.609 282.59 437.741 282.483C437.874 282.376 438.036 282.313 438.205 282.3C438.986 282.25 439.763 282.153 440.532 282.01C442.325 281.721 444.008 280.961 445.409 279.805C446.43 278.899 447.207 277.751 447.67 276.466C448.064 275.378 448.176 274.009 447.342 273.192C446.828 272.764 446.203 272.491 445.541 272.405C444.959 272.283 444.377 272.17 443.787 272.076C443.621 272.048 443.469 271.967 443.353 271.846C443.238 271.724 443.164 271.568 443.144 271.402C443.124 271.235 443.159 271.066 443.242 270.921C443.326 270.775 443.454 270.661 443.608 270.594L446.075 269.572C446.785 269.341 447.429 268.942 447.951 268.409C448.274 267.912 448.484 267.35 448.566 266.764C448.649 266.177 448.602 265.58 448.43 265.013C448.129 263.465 447.595 261.983 447.229 260.445C446.797 258.918 446.743 257.308 447.07 255.755C442.445 255.244 437.766 255.562 433.253 256.693C431.901 256.977 430.623 257.539 429.501 258.344C427.963 259.573 427.569 261.421 427.728 263.418C427.73 263.498 427.706 263.576 427.659 263.64C427.612 263.705 427.545 263.751 427.468 263.773C427.392 263.794 427.31 263.79 427.236 263.759C427.163 263.729 427.101 263.675 427.062 263.606L425.467 260.764C425.236 260.343 424.853 260.027 424.396 259.88C423.938 259.734 423.443 259.768 423.01 259.976C421.631 260.66 420.405 261.617 419.408 262.79C418.856 263.417 418.435 264.149 418.171 264.942C417.907 265.734 417.804 266.572 417.87 267.405C418.058 269.691 418.441 271.957 419.014 274.177C419.041 274.297 419.031 274.422 418.987 274.536C418.943 274.651 418.865 274.749 418.765 274.82C418.664 274.89 418.545 274.929 418.423 274.932C418.3 274.934 418.179 274.9 418.076 274.834L418.001 274.787C417.578 274.457 417.044 274.303 416.51 274.356C415.121 274.524 414.765 275.931 414.634 277.17C414.582 279.031 414.752 280.892 415.14 282.713Z" fill="#5BD7F3"/>
<path opacity="0.2" d="M415.14 282.713C415.484 284.233 416.132 285.668 417.044 286.932C417.957 288.195 419.115 289.262 420.449 290.067C422.949 291.253 425.728 291.72 428.478 291.418C431.265 291.098 434.005 290.45 436.639 289.486C437.943 289.045 439.406 288.444 439.547 286.822C439.57 286.394 439.497 285.968 439.335 285.572C439.173 285.176 438.925 284.821 438.609 284.533C438.34 284.275 438.059 284.03 437.765 283.801C437.628 283.699 437.527 283.558 437.473 283.397C437.419 283.235 437.416 283.061 437.464 282.898C437.512 282.735 437.609 282.59 437.741 282.483C437.874 282.376 438.036 282.313 438.205 282.3C438.986 282.25 439.763 282.153 440.532 282.01C442.325 281.721 444.008 280.961 445.409 279.805C446.43 278.899 447.207 277.751 447.67 276.466C448.064 275.378 448.176 274.009 447.342 273.192C446.828 272.764 446.203 272.491 445.541 272.405C444.959 272.283 444.377 272.17 443.787 272.076C443.621 272.048 443.469 271.967 443.353 271.846C443.238 271.724 443.164 271.568 443.144 271.402C443.124 271.235 443.159 271.066 443.242 270.921C443.326 270.775 443.454 270.661 443.608 270.594L446.075 269.572C446.785 269.341 447.429 268.942 447.951 268.409C448.274 267.912 448.484 267.35 448.566 266.764C448.649 266.177 448.602 265.58 448.43 265.013C448.129 263.465 447.595 261.983 447.229 260.445C446.797 258.918 446.743 257.308 447.07 255.755C442.445 255.244 437.766 255.562 433.253 256.693C431.901 256.977 430.623 257.539 429.501 258.344C427.963 259.573 427.569 261.421 427.728 263.418C427.73 263.498 427.706 263.576 427.659 263.64C427.612 263.705 427.545 263.751 427.468 263.773C427.392 263.794 427.31 263.79 427.236 263.759C427.163 263.729 427.101 263.675 427.062 263.606L425.467 260.764C425.236 260.343 424.853 260.027 424.396 259.88C423.938 259.734 423.443 259.768 423.01 259.976C421.631 260.66 420.405 261.617 419.408 262.79C418.856 263.417 418.435 264.149 418.171 264.942C417.907 265.734 417.804 266.572 417.87 267.405C418.058 269.691 418.441 271.957 419.014 274.177C419.041 274.297 419.031 274.422 418.987 274.536C418.943 274.651 418.865 274.749 418.765 274.82C418.664 274.89 418.545 274.929 418.423 274.932C418.3 274.934 418.179 274.9 418.076 274.834L418.001 274.787C417.578 274.457 417.044 274.303 416.51 274.356C415.121 274.524 414.765 275.931 414.634 277.17C414.582 279.031 414.752 280.892 415.14 282.713Z" fill="black"/>
<path opacity="0.2" d="M415.14 282.713C415.484 284.233 416.132 285.668 417.044 286.932C417.957 288.195 419.115 289.262 420.449 290.067C422.949 291.253 425.728 291.72 428.478 291.418C431.265 291.098 434.005 290.45 436.639 289.486C437.943 289.045 439.406 288.444 439.547 286.822C439.57 286.394 439.497 285.968 439.335 285.572C439.173 285.176 438.925 284.821 438.609 284.533C438.34 284.275 438.059 284.03 437.765 283.801C437.628 283.699 437.527 283.558 437.473 283.397C437.419 283.235 437.416 283.061 437.464 282.898C437.512 282.735 437.609 282.59 437.741 282.483C437.874 282.376 438.036 282.313 438.205 282.3C438.986 282.25 439.763 282.153 440.532 282.01C442.325 281.721 444.008 280.961 445.409 279.805C446.43 278.899 447.207 277.751 447.67 276.466C448.064 275.378 448.176 274.009 447.342 273.192C446.828 272.764 446.203 272.491 445.541 272.405C444.959 272.283 444.377 272.17 443.787 272.076C443.621 272.048 443.469 271.967 443.353 271.846C443.238 271.724 443.164 271.568 443.144 271.402C443.124 271.235 443.159 271.066 443.242 270.921C443.326 270.775 443.454 270.661 443.608 270.594L446.075 269.572C446.785 269.341 447.429 268.942 447.951 268.409C448.274 267.912 448.484 267.35 448.566 266.764C448.649 266.177 448.602 265.58 448.43 265.013C448.129 263.465 447.595 261.983 447.229 260.445C446.797 258.918 446.743 257.308 447.07 255.755C442.445 255.244 437.766 255.562 433.253 256.693C431.901 256.977 430.623 257.539 429.501 258.344C427.963 259.573 427.569 261.421 427.728 263.418C427.73 263.498 427.706 263.576 427.659 263.64C427.612 263.705 427.545 263.751 427.468 263.773C427.392 263.794 427.31 263.79 427.236 263.759C427.163 263.729 427.101 263.675 427.062 263.606L425.467 260.764C425.236 260.343 424.853 260.027 424.396 259.88C423.938 259.734 423.443 259.768 423.01 259.976C421.631 260.66 420.405 261.617 419.408 262.79C418.856 263.417 418.435 264.149 418.171 264.942C417.907 265.734 417.804 266.572 417.87 267.405C418.058 269.691 418.441 271.957 419.014 274.177C419.041 274.297 419.031 274.422 418.987 274.536C418.943 274.651 418.865 274.749 418.765 274.82C418.664 274.89 418.545 274.929 418.423 274.932C418.3 274.934 418.179 274.9 418.076 274.834L418.001 274.787C417.578 274.457 417.044 274.303 416.51 274.356C415.121 274.524 414.765 275.931 414.634 277.17C414.582 279.031 414.752 280.892 415.14 282.713Z" fill="white"/>
<path d="M422.466 289.692C423.343 285.983 424.601 282.375 426.218 278.924C426.219 278.87 426.231 278.818 426.254 278.769C426.276 278.721 426.309 278.677 426.349 278.642L426.602 278.079C426.153 273.778 424.906 269.599 422.925 265.754C422.891 265.711 422.866 265.661 422.853 265.607C422.839 265.554 422.837 265.498 422.847 265.444C422.857 265.389 422.879 265.338 422.911 265.293C422.942 265.247 422.983 265.21 423.031 265.182C423.079 265.154 423.132 265.136 423.187 265.131C423.242 265.125 423.297 265.132 423.35 265.149C423.402 265.167 423.45 265.196 423.49 265.234C423.53 265.272 423.561 265.318 423.582 265.37C425.438 268.955 426.666 272.832 427.212 276.832C430.354 270.529 435.373 263.147 443.158 257.762C443.198 257.733 443.244 257.711 443.293 257.7C443.341 257.688 443.392 257.687 443.441 257.696C443.49 257.704 443.537 257.723 443.579 257.751C443.621 257.778 443.656 257.814 443.683 257.856C443.712 257.897 443.732 257.943 443.743 257.991C443.754 258.039 443.755 258.09 443.746 258.138C443.737 258.187 443.719 258.234 443.692 258.276C443.665 258.317 443.63 258.353 443.59 258.381C435.598 263.944 430.561 271.645 427.494 278.079C431.604 276.221 436.168 275.602 440.626 276.297C440.674 276.306 440.721 276.325 440.762 276.352C440.804 276.379 440.84 276.414 440.868 276.455C440.895 276.496 440.915 276.542 440.925 276.591C440.935 276.639 440.935 276.689 440.926 276.738C440.913 276.813 440.877 276.882 440.824 276.936C440.77 276.99 440.701 277.026 440.626 277.038H440.485C440.41 277.038 433.178 275.716 426.931 279.205C425.33 282.614 424.082 286.179 423.207 289.842C423.193 289.915 423.156 289.982 423.102 290.034C423.049 290.086 422.98 290.121 422.907 290.133H422.757C422.708 290.124 422.662 290.105 422.621 290.078C422.58 290.051 422.544 290.016 422.517 289.974C422.49 289.933 422.471 289.887 422.463 289.838C422.454 289.79 422.455 289.74 422.466 289.692Z" fill="#F0F0F0"/>
<path d="M64.2999 208.377L64.2624 194.991L57.2837 191.024L57.3212 204.09V204.39L64.2999 208.377Z" fill="#90CAF9"/>
<path d="M64.722 363.363L64.2811 208.377L57.3024 204.39L57.7339 359.085C57.6893 359.585 57.7736 360.088 57.9789 360.547C58.1842 361.005 58.5035 361.403 58.9064 361.702L65.7913 365.904C65.416 365.603 65.1217 365.213 64.935 364.769C64.7483 364.325 64.6751 363.842 64.722 363.363Z" fill="#90CAF9"/>
<path opacity="0.2" d="M64.722 363.363L64.2811 208.377L57.3024 204.39L57.7339 359.085C57.6893 359.585 57.7736 360.088 57.9789 360.547C58.1842 361.005 58.5035 361.403 58.9064 361.702L65.7913 365.904C65.416 365.603 65.1217 365.213 64.935 364.769C64.7483 364.325 64.6751 363.842 64.722 363.363Z" fill="white"/>
<path d="M68.8867 365.726C68.6292 365.875 68.3593 366 68.08 366.101C68.3593 366 68.6292 365.875 68.8867 365.726Z" fill="#455A64"/>
<path d="M64.2905 194.963V187.262C64.36 185.83 64.7666 184.435 65.4773 183.19C66.188 181.944 67.1826 180.884 68.3802 180.096L301.942 45.2586C302.356 44.9625 302.84 44.7784 303.346 44.7241C303.852 44.6699 304.364 44.7474 304.831 44.949L297.937 40.7186C297.465 40.481 296.937 40.378 296.411 40.421C295.885 40.4641 295.381 40.6514 294.954 40.9625L61.3921 175.8C60.1901 176.582 59.1904 177.637 58.4747 178.879C57.7589 180.122 57.3476 181.516 57.2743 182.948V190.658V190.958L64.253 194.935L64.2905 194.963Z" fill="#90CAF9"/>
<path opacity="0.3" d="M64.2905 194.963V187.262C64.36 185.83 64.7666 184.435 65.4773 183.19C66.188 181.944 67.1826 180.884 68.3802 180.096L301.942 45.2586C302.356 44.9625 302.84 44.7784 303.346 44.7241C303.852 44.6699 304.364 44.7474 304.831 44.949L297.937 40.7186C297.465 40.481 296.937 40.378 296.411 40.421C295.885 40.4641 295.381 40.6514 294.954 40.9625L61.3921 175.8C60.1901 176.582 59.1904 177.637 58.4747 178.879C57.7589 180.122 57.3476 181.516 57.2743 182.948V190.658V190.958L64.253 194.935L64.2905 194.963Z" fill="white"/>
<path opacity="0.2" d="M64.2999 208.377L64.2624 194.991L57.2837 191.024L57.3212 204.09V204.39L64.2999 208.377Z" fill="black"/>
<path opacity="0.2" d="M64.2999 208.377L64.2624 194.991L57.2837 191.024L57.3212 204.09V204.39L64.2999 208.377Z" fill="white"/>
<path d="M301.933 45.2773C304.212 43.9641 306.069 45.024 306.079 47.6504V55.3608L64.2905 194.963V187.262C64.36 185.83 64.7666 184.435 65.4773 183.19C66.188 181.944 67.1826 180.884 68.3802 180.096L301.933 45.2773Z" fill="#0078BB"/>
<path d="M286.278 58.0341C287.497 57.3213 288.491 57.8934 288.491 59.2911C288.452 60.0565 288.232 60.8017 287.849 61.4654C287.466 62.1291 286.93 62.6924 286.287 63.1087C285.068 63.8216 284.073 63.2494 284.073 61.8518C284.11 61.0859 284.329 60.3398 284.713 59.6757C285.096 59.0116 285.633 58.4488 286.278 58.0341Z" fill="white"/>
<path d="M293.022 54.132C294.241 53.4285 295.236 54.0007 295.236 55.3983C295.199 56.1642 294.98 56.9103 294.596 57.5744C294.213 58.2385 293.676 58.8013 293.031 59.2159C291.812 59.9194 290.818 59.3566 290.818 57.9496C290.859 57.1848 291.08 56.4404 291.463 55.777C291.846 55.1137 292.38 54.55 293.022 54.132Z" fill="white"/>
<path d="M299.757 50.2487C300.985 49.5359 301.97 50.108 301.98 51.5057C301.941 52.2738 301.722 53.0219 301.339 53.6888C300.955 54.3556 300.42 54.9222 299.775 55.3421C298.556 56.055 297.562 55.4828 297.552 54.0852C297.591 53.317 297.81 52.5689 298.193 51.9021C298.577 51.2352 299.112 50.6686 299.757 50.2487Z" fill="white"/>
<path d="M112.916 159.244C113.854 158.719 114.67 158.813 115.102 159.488L117.297 162.865C117.738 163.54 118.573 163.634 119.482 163.109L306.069 55.342V68.7461L64.2999 208.395V194.991L71.4662 190.855C72.4774 190.196 73.245 189.224 73.6518 188.088L75.8092 182.197C76.209 181.062 76.9745 180.092 77.9853 179.439L112.916 159.244Z" fill="#E0E0E0"/>
<path d="M306.107 68.7649L306.548 223.76C306.472 225.189 306.06 226.58 305.344 227.818C304.629 229.057 303.63 230.11 302.43 230.889L68.8867 365.726C66.598 367.049 64.7501 365.989 64.7408 363.363L64.2999 208.377L306.107 68.7649Z" fill="#0078BB"/>
<g opacity="0.4">
<path d="M306.107 68.7649L306.548 223.76C306.472 225.189 306.06 226.58 305.344 227.818C304.629 229.057 303.63 230.11 302.43 230.889L68.8867 365.726C66.598 367.049 64.7501 365.989 64.7408 363.363L64.2999 208.377L306.107 68.7649Z" fill="#FAFAFA"/>
</g>
<path d="M296.549 63.6152C298.171 62.6772 299.485 63.4276 299.494 65.2943C299.437 66.3074 299.142 67.2929 298.634 68.1711C298.125 69.0494 297.417 69.7958 296.567 70.3501L91.924 188.538C90.3013 189.476 88.9787 188.716 88.9693 186.85C89.0262 185.834 89.3217 184.846 89.8318 183.966C90.3419 183.086 91.0523 182.339 91.9052 181.784L296.549 63.6152Z" fill="white"/>
<path d="M68.1645 196.183C68.2108 196.154 68.2645 196.138 68.3192 196.138C68.374 196.138 68.4276 196.154 68.474 196.183C68.6241 196.286 68.6147 196.596 68.474 196.868L67.1889 198.978L70.547 196.98C70.5866 196.947 70.6354 196.927 70.6868 196.922C70.7382 196.917 70.7899 196.928 70.8348 196.954C70.8797 196.979 70.9157 197.018 70.9381 197.065C70.9604 197.111 70.9679 197.164 70.9597 197.215C70.9557 197.36 70.9159 197.501 70.8439 197.627C70.7719 197.753 70.6699 197.86 70.547 197.937L67.1608 199.888L68.4552 200.507C68.6241 200.591 68.6428 200.882 68.4552 201.154C68.3842 201.29 68.2812 201.405 68.1551 201.492C68.1099 201.514 68.0601 201.526 68.0097 201.526C67.9593 201.526 67.9095 201.514 67.8643 201.492L65.7913 200.498L65.7069 200.413V200.244V200.038L65.7819 199.869L67.8549 196.474C67.9284 196.349 68.0357 196.248 68.1645 196.183Z" fill="#E0E0E0"/>
<path d="M75.4996 191.952C75.5432 191.93 75.5914 191.919 75.6403 191.919C75.6892 191.919 75.7374 191.93 75.781 191.952L77.854 192.9L77.929 192.994V193.162V193.369V193.416L77.8634 193.585L75.7998 196.98C75.7309 197.096 75.6342 197.193 75.5184 197.261C75.4739 197.291 75.4217 197.307 75.3683 197.307C75.3149 197.307 75.2627 197.291 75.2182 197.261C75.0588 197.168 75.0681 196.858 75.2182 196.577L76.5033 194.476L73.164 196.464C72.9389 196.586 72.7513 196.464 72.7513 196.22C72.7602 196.079 72.8012 195.941 72.871 195.818C72.9409 195.694 73.0378 195.588 73.1546 195.507L76.5502 193.556L75.2557 192.937C75.0775 192.853 75.0775 192.562 75.2557 192.271C75.3095 192.147 75.3933 192.037 75.4996 191.952Z" fill="#E0E0E0"/>
<path d="M82.4596 187.928C82.8754 187.658 83.3813 187.564 83.8666 187.666L84.1761 187.253C84.2368 187.17 84.3133 187.1 84.4012 187.047C84.4747 187.025 84.5529 187.025 84.6264 187.047C84.7671 187.047 84.8327 187.215 84.814 187.422L84.6357 188.698C84.6121 188.851 84.5509 188.996 84.4575 189.12C84.397 189.203 84.3205 189.273 84.2324 189.326L84.1292 189.373L83.1256 189.654C83.0908 189.666 83.0537 189.669 83.0174 189.664C82.9811 189.659 82.9465 189.646 82.9163 189.625C82.8862 189.604 82.8615 189.576 82.844 189.543C82.8266 189.511 82.817 189.475 82.816 189.439C82.8014 189.231 82.8687 189.025 83.0036 188.866L83.0974 188.735C82.8754 188.743 82.659 188.808 82.469 188.923C82.0363 189.204 81.6759 189.583 81.4168 190.03C81.1577 190.476 81.0073 190.977 80.9775 191.493C80.9775 192.431 81.6529 192.825 82.4783 192.346C83.0829 191.963 83.5418 191.388 83.7822 190.714C83.8493 190.527 83.9741 190.366 84.1386 190.255C84.1986 190.22 84.2663 190.201 84.3356 190.198C84.5419 190.198 84.617 190.461 84.5044 190.752C84.1126 191.773 83.4022 192.642 82.4783 193.228C81.2027 193.96 80.1615 193.369 80.1521 191.896C80.2001 191.1 80.4338 190.327 80.8345 189.638C81.2352 188.949 81.7918 188.364 82.4596 187.928Z" fill="#E0E0E0"/>
<g opacity="0.3">
<path d="M68.1645 196.183C68.2108 196.154 68.2645 196.138 68.3192 196.138C68.374 196.138 68.4276 196.154 68.474 196.183C68.6241 196.286 68.6147 196.596 68.474 196.868L67.1889 198.978L70.547 196.98C70.5866 196.947 70.6354 196.927 70.6868 196.922C70.7382 196.917 70.7899 196.928 70.8348 196.954C70.8797 196.979 70.9157 197.018 70.9381 197.065C70.9604 197.111 70.9679 197.164 70.9597 197.215C70.9557 197.36 70.9159 197.501 70.8439 197.627C70.7719 197.753 70.6699 197.86 70.547 197.937L67.1608 199.888L68.4552 200.507C68.6241 200.591 68.6428 200.882 68.4552 201.154C68.3842 201.29 68.2812 201.405 68.1551 201.492C68.1099 201.514 68.0601 201.526 68.0097 201.526C67.9593 201.526 67.9095 201.514 67.8643 201.492L65.7913 200.498L65.7069 200.413V200.244V200.038L65.7819 199.869L67.8549 196.474C67.9284 196.349 68.0357 196.248 68.1645 196.183Z" fill="black"/>
</g>
<g opacity="0.3">
<path d="M75.4996 191.952C75.5432 191.93 75.5914 191.919 75.6403 191.919C75.6892 191.919 75.7374 191.93 75.781 191.952L77.854 192.9L77.929 192.994V193.162V193.369V193.416L77.8634 193.585L75.7998 196.98C75.7309 197.096 75.6342 197.193 75.5184 197.261C75.4739 197.291 75.4217 197.307 75.3683 197.307C75.3149 197.307 75.2627 197.291 75.2182 197.261C75.0588 197.168 75.0681 196.858 75.2182 196.577L76.5033 194.476L73.164 196.464C72.9389 196.586 72.7513 196.464 72.7513 196.22C72.7602 196.079 72.8012 195.941 72.871 195.818C72.9409 195.694 73.0378 195.588 73.1546 195.507L76.5502 193.556L75.2557 192.937C75.0775 192.853 75.0775 192.562 75.2557 192.271C75.3095 192.147 75.3933 192.037 75.4996 191.952Z" fill="black"/>
</g>
<g opacity="0.3">
<path d="M82.4596 187.928C82.8754 187.658 83.3813 187.564 83.8666 187.666L84.1761 187.253C84.2368 187.17 84.3133 187.1 84.4012 187.047C84.4747 187.025 84.5529 187.025 84.6264 187.047C84.7671 187.047 84.8327 187.215 84.814 187.422L84.6357 188.698C84.6121 188.851 84.5509 188.996 84.4575 189.12C84.397 189.203 84.3205 189.273 84.2324 189.326L84.1292 189.373L83.1256 189.654C83.0908 189.666 83.0537 189.669 83.0174 189.664C82.9811 189.659 82.9465 189.646 82.9163 189.625C82.8862 189.604 82.8615 189.576 82.844 189.543C82.8266 189.511 82.817 189.475 82.816 189.439C82.8014 189.231 82.8687 189.025 83.0036 188.866L83.0974 188.735C82.8754 188.743 82.659 188.808 82.469 188.923C82.0363 189.204 81.6759 189.583 81.4168 190.03C81.1577 190.476 81.0073 190.977 80.9775 191.493C80.9775 192.431 81.6529 192.825 82.4783 192.346C83.0829 191.963 83.5418 191.388 83.7822 190.714C83.8493 190.527 83.9741 190.366 84.1386 190.255C84.1986 190.22 84.2663 190.201 84.3356 190.198C84.5419 190.198 84.617 190.461 84.5044 190.752C84.1126 191.773 83.4022 192.642 82.4783 193.228C81.2027 193.96 80.1615 193.369 80.1521 191.896C80.2001 191.1 80.4338 190.327 80.8345 189.638C81.2352 188.949 81.7918 188.364 82.4596 187.928Z" fill="black"/>
</g>
<g opacity="0.6">
<path d="M295.376 114.08L295.592 169.806C295.597 172.329 294.938 174.809 293.682 176.997C292.425 179.185 290.616 181.004 288.435 182.272L167.705 252.322C166.979 252.744 166.154 252.967 165.314 252.968C164.475 252.97 163.649 252.751 162.921 252.333C162.193 251.915 161.588 251.312 161.166 250.586C160.745 249.859 160.522 249.035 160.52 248.195L160.314 192.468C160.305 189.946 160.961 187.465 162.216 185.277C163.471 183.089 165.28 181.269 167.461 180.002L288.191 109.971C288.916 109.55 289.739 109.328 290.577 109.325C291.415 109.322 292.239 109.54 292.967 109.956C293.695 110.372 294.3 110.972 294.723 111.696C295.146 112.419 295.371 113.241 295.376 114.08Z" fill="#D2F0F7"/>
</g>
<path d="M246.422 147.819L222.193 193.838L215.337 206.876L220.055 192.196L206.698 181.822L191.821 211.378L191.877 229.435L269.947 184.355L269.891 166.298L246.422 147.819Z" fill="#90CAF9"/>
<path d="M220.824 172.217C222.755 170.958 224.362 169.261 225.514 167.265C226.666 165.268 227.331 163.028 227.456 160.726C227.456 156.505 224.454 154.798 220.777 156.918C218.845 158.176 217.237 159.872 216.084 161.869C214.932 163.865 214.267 166.106 214.145 168.409C214.155 172.592 217.147 174.337 220.824 172.217Z" fill="#90CAF9"/>
<g opacity="0.3">
<path d="M246.422 147.819L222.193 193.838L215.337 206.876L220.055 192.196L206.698 181.822L191.821 211.378L191.877 229.435L269.947 184.355L269.891 166.298L246.422 147.819Z" fill="#009BDE"/>
<path d="M220.824 172.217C222.755 170.958 224.362 169.261 225.514 167.265C226.666 165.268 227.331 163.028 227.456 160.726C227.456 156.505 224.454 154.798 220.777 156.918C218.845 158.176 217.237 159.872 216.084 161.869C214.932 163.865 214.267 166.106 214.145 168.409C214.155 172.592 217.147 174.337 220.824 172.217Z" fill="#009BDE"/>
</g>
<g opacity="0.6">
<path d="M224.182 230.382L224.276 264.038C224.276 265.177 223.977 266.296 223.409 267.284C222.842 268.271 222.024 269.093 221.04 269.666L163.653 302.974C163.324 303.163 162.951 303.262 162.571 303.262C162.191 303.261 161.818 303.161 161.49 302.971C161.161 302.781 160.888 302.508 160.698 302.179C160.508 301.85 160.408 301.478 160.407 301.098L160.314 267.433C160.309 266.293 160.605 265.172 161.174 264.183C161.742 263.195 162.562 262.374 163.55 261.805L220.918 228.516C221.247 228.322 221.621 228.219 222.003 228.217C222.384 228.215 222.76 228.313 223.091 228.503C223.422 228.692 223.697 228.966 223.889 229.296C224.081 229.626 224.182 230.001 224.182 230.382Z" fill="#D2F0F7"/>
</g>
<path d="M186.596 258.578L204.371 260.107L186.662 282.113L186.596 258.578Z" fill="#009BDE"/>
<g opacity="0.3">
<path d="M186.596 258.578L204.371 260.107L186.662 282.113L186.596 258.578Z" fill="#009BDE"/>
</g>
<g opacity="0.6">
<path d="M294.72 189.476L294.813 223.131C294.816 224.271 294.519 225.392 293.951 226.38C293.383 227.368 292.564 228.189 291.577 228.759L234.5 261.468C234.171 261.659 233.796 261.76 233.415 261.761C233.034 261.761 232.66 261.661 232.33 261.471C232 261.281 231.726 261.007 231.535 260.677C231.345 260.347 231.245 259.973 231.245 259.592L231.151 225.936C231.151 224.797 231.45 223.678 232.018 222.69C232.586 221.702 233.403 220.881 234.387 220.308L291.465 187.6C291.794 187.409 292.168 187.308 292.549 187.307C292.93 187.306 293.305 187.406 293.635 187.597C293.965 187.787 294.239 188.061 294.429 188.391C294.62 188.721 294.72 189.095 294.72 189.476Z" fill="#D2F0F7"/>
</g>
<path d="M256.552 216.453L274.318 217.982L256.618 239.987L256.552 216.453Z" fill="#009BDE"/>
<g opacity="0.3">
<path d="M256.552 216.453L274.318 217.982L256.618 239.987L256.552 216.453Z" fill="#009BDE"/>
</g>
<g opacity="0.7">
<path d="M127.971 186.99L127.99 195.479L79.4298 223.516L79.4111 215.037L127.971 186.99Z" fill="white"/>
<path d="M108.48 211.378L108.498 215.599L79.458 232.371L79.4486 228.15L108.48 211.378Z" fill="white"/>
<path d="M187.084 152.903L187.103 157.856L173.042 165.97L173.023 161.027L187.084 152.903Z" fill="white"/>
<path d="M214.052 137.333L214.061 142.285L195.32 153.11L195.31 148.157L214.052 137.333Z" fill="white"/>
<path d="M268.259 106.041L268.268 110.994L254.207 119.107L254.198 114.164L268.259 106.041Z" fill="white"/>
<path d="M295.226 90.4702L295.235 95.4229L276.494 106.247L276.475 101.295L295.226 90.4702Z" fill="white"/>
<path d="M244.546 119.726L244.555 124.679L222.184 137.605L222.165 132.652L244.546 119.726Z" fill="white"/>
</g>
<g opacity="0.7">
<path d="M128.347 234.678L128.356 238.421L79.5143 266.617L79.5049 262.875L128.347 234.678Z" fill="white"/>
<path d="M98.6964 258.297L98.7151 262.03L79.533 273.108L79.5236 269.366L98.6964 258.297Z" fill="white"/>
<path d="M128.403 256.609L128.412 260.351L79.5799 288.548L79.5705 284.805L128.403 256.609Z" fill="white"/>
<path d="M128.384 250.118L128.393 253.851L79.5612 282.047L79.5518 278.314L128.384 250.118Z" fill="white"/>
<path d="M128.328 228.187L128.337 231.921L79.4955 260.117L79.4861 256.384L128.328 228.187Z" fill="white"/>
<path d="M117.878 269.187L117.888 272.921L79.5987 295.029L79.5799 291.296L117.878 269.187Z" fill="white"/>
</g>
<path d="M126.911 292.656C131.114 290.227 134.537 292.178 134.556 297.008C134.575 301.839 131.17 307.73 126.958 310.14L86.0802 333.75C81.8686 336.179 78.4449 334.238 78.4356 329.398C78.4262 324.557 81.8217 318.676 86.024 316.266L126.911 292.656Z" fill="url(#paint0_linear_224_15)"/>
<path d="M100.563 313.311L100.601 319.858L98.8464 320.862L98.8183 317.888L97.5895 321.002L96.7453 321.49L95.4978 319.914L95.5072 322.794L93.7531 323.807L93.7343 317.25L95.3102 316.341L97.1862 318.761L98.9871 314.221L100.563 313.311Z" fill="white"/>
<path d="M104.503 310.891C106.379 309.821 107.72 310.478 107.729 312.457C107.67 313.535 107.347 314.581 106.787 315.504C106.228 316.427 105.45 317.197 104.521 317.748C102.645 318.817 101.295 318.16 101.285 316.181C101.345 315.103 101.67 314.056 102.231 313.133C102.792 312.21 103.573 311.44 104.503 310.891ZM104.503 315.956C104.897 315.699 105.22 315.347 105.443 314.932C105.666 314.517 105.781 314.054 105.778 313.583C105.778 312.56 105.206 312.27 104.493 312.645C104.101 312.903 103.779 313.256 103.558 313.67C103.337 314.085 103.223 314.548 103.227 315.018C103.227 316.04 103.799 316.322 104.503 315.956Z" fill="white"/>
<path d="M112.701 310.844L113.911 312.166L111.856 313.358L110.918 312.27L110.393 312.57V314.23L108.517 315.337V308.771L111.266 307.176C112.851 306.238 113.864 306.632 113.873 308.114C113.832 309.138 113.415 310.11 112.701 310.844ZM111.05 310.497C111.279 310.387 111.473 310.216 111.611 310.002C111.748 309.789 111.824 309.541 111.828 309.287C111.828 308.808 111.575 308.658 111.05 308.968L110.346 309.371V310.9L111.04 310.497" fill="white"/>
<path d="M119.126 302.589L119.135 304.269L116.387 305.844V306.614L118.798 305.225L118.807 306.81L116.396 308.199V309.071L119.248 307.42V309.09L114.511 311.819L114.492 305.272L119.126 302.589Z" fill="white"/>
<path d="M237.558 400.451L237.549 404.55L209.652 388.445L209.662 384.345L237.558 400.451Z" fill="#90CAF9"/>
<path d="M237.577 394.26L237.558 398.369L226.217 391.821L226.227 387.703L237.577 394.26Z" fill="#90CAF9"/>
<path d="M191.324 379.946L191.314 384.055L171.232 372.461L171.241 368.353L191.324 379.946Z" fill="#90CAF9"/>
<path d="M203.452 380.762L203.443 384.861L171.251 366.28L171.26 362.171L203.452 380.762Z" fill="#90CAF9"/>
<path d="M220.824 384.589L220.815 388.698L188.951 370.304L185.846 368.512L171.054 359.976L171.063 355.858L185.865 364.404L188.969 366.195L220.824 384.589Z" fill="#90CAF9"/>
<path d="M211.538 364.601L211.528 368.7L171.307 345.484L171.326 341.385L211.538 364.601Z" fill="#90CAF9"/>
<path d="M209.23 357.069L209.212 361.168L201.36 356.628L201.37 352.529L209.23 357.069Z" fill="#90CAF9"/>
<path d="M206.942 388.97L206.932 393.069L195.592 386.522L195.601 382.423L206.942 388.97Z" fill="#90CAF9"/>
<path d="M237.633 373.465L237.624 377.564L215.262 364.657L215.271 360.548L237.633 373.465Z" fill="#90CAF9"/>
<path d="M237.652 367.283L237.642 371.382L222.006 362.359L218.554 360.37L197.834 348.401L197.843 344.302L218.563 356.262L222.015 358.26L237.652 367.283Z" fill="#90CAF9"/>
<path d="M220.937 345.24L220.918 349.339L194.898 334.313L194.907 330.214L220.937 345.24Z" fill="#90CAF9"/>
<path d="M194.851 348.767L194.841 352.866L171.326 339.293L171.335 335.194L194.851 348.767Z" fill="#90CAF9"/>
<path d="M191.436 340.607L191.427 344.706L171.344 333.112L171.354 329.013L191.436 340.607Z" fill="#90CAF9"/>
<path d="M189.073 326.846L189.063 330.945L171.166 320.618L171.176 316.509L189.073 326.846Z" fill="#90CAF9"/>
<path d="M203.565 341.413L203.555 345.512L171.363 326.93L171.373 322.831L203.565 341.413Z" fill="#90CAF9"/>
<path d="M197.646 325.599L197.637 329.707L171.185 314.436L171.194 310.328L197.646 325.599Z" fill="#90CAF9"/>
<path d="M237.67 361.102L237.661 365.21L209.765 349.105L209.774 344.996L237.67 361.102Z" fill="#90CAF9"/>
<path d="M237.689 354.911L237.67 359.01L226.33 352.463L226.339 348.364L237.689 354.911Z" fill="#90CAF9"/>
<g opacity="0.6">
<path d="M237.558 400.451L237.549 404.55L209.652 388.445L209.662 384.345L237.558 400.451Z" fill="white"/>
<path d="M237.577 394.26L237.558 398.369L226.217 391.821L226.227 387.703L237.577 394.26Z" fill="white"/>
<path d="M191.324 379.946L191.314 384.055L171.232 372.461L171.241 368.353L191.324 379.946Z" fill="white"/>
<path d="M203.452 380.762L203.443 384.861L171.251 366.28L171.26 362.171L203.452 380.762Z" fill="white"/>
<path d="M220.824 384.589L220.815 388.698L188.951 370.304L185.846 368.512L171.054 359.976L171.063 355.858L185.865 364.404L188.969 366.195L220.824 384.589Z" fill="white"/>
<path d="M211.538 364.601L211.528 368.7L171.307 345.484L171.326 341.385L211.538 364.601Z" fill="white"/>
<path d="M209.23 357.068L209.212 361.168L201.36 356.628L201.37 352.529L209.23 357.068Z" fill="white"/>
<path d="M206.942 388.97L206.932 393.069L195.592 386.522L195.601 382.423L206.942 388.97Z" fill="white"/>
<path d="M237.633 373.465L237.624 377.564L215.262 364.657L215.271 360.548L237.633 373.465Z" fill="white"/>
<path d="M237.652 367.283L237.642 371.382L222.006 362.359L218.554 360.37L197.834 348.401L197.843 344.302L218.563 356.262L222.015 358.26L237.652 367.283Z" fill="white"/>
<path d="M220.937 345.24L220.918 349.339L194.898 334.313L194.907 330.214L220.937 345.24Z" fill="white"/>
<path d="M194.851 348.767L194.841 352.866L171.326 339.293L171.335 335.194L194.851 348.767Z" fill="white"/>
<path d="M191.436 340.607L191.427 344.706L171.344 333.112L171.354 329.013L191.436 340.607Z" fill="white"/>
<path d="M189.073 326.846L189.063 330.945L171.166 320.618L171.176 316.509L189.073 326.846Z" fill="white"/>
<path d="M203.565 341.413L203.555 345.512L171.363 326.93L171.373 322.831L203.565 341.413Z" fill="white"/>
<path d="M197.646 325.599L197.636 329.707L171.185 314.436L171.194 310.328L197.646 325.599Z" fill="white"/>
<path d="M237.67 361.102L237.661 365.21L209.765 349.105L209.774 344.996L237.67 361.102Z" fill="white"/>
<path d="M237.689 354.911L237.67 359.01L226.33 352.463L226.339 348.364L237.689 354.911Z" fill="white"/>
</g>
<path d="M157.584 320.571L148.073 314.943C148.001 314.9 147.942 314.84 147.901 314.768C147.859 314.695 147.838 314.613 147.838 314.53V255.249L135.569 248.148L136.048 247.322L148.551 254.564C148.624 254.605 148.686 254.665 148.728 254.737C148.771 254.81 148.794 254.892 148.795 254.977V314.286L158.072 319.745L157.584 320.571Z" fill="#90CAF9"/>
<path d="M160.323 317.701C161.308 318.345 162.129 319.212 162.717 320.232C163.305 321.252 163.645 322.397 163.709 323.572C163.709 325.73 162.18 326.602 160.295 325.514C159.309 324.87 158.489 324.002 157.901 322.982C157.313 321.962 156.973 320.818 156.909 319.642C156.918 317.485 158.447 316.612 160.323 317.701Z" fill="#90CAF9"/>
<path d="M137.576 244.818C138.564 245.461 139.386 246.328 139.976 247.348C140.565 248.369 140.907 249.513 140.972 250.69C140.972 252.847 139.434 253.72 137.558 252.632C136.57 251.988 135.749 251.121 135.159 250.101C134.569 249.081 134.227 247.936 134.162 246.76C134.134 244.612 135.7 243.739 137.576 244.818Z" fill="#90CAF9"/>
<g opacity="0.2">
<path d="M157.584 320.571L148.073 314.943C148.001 314.9 147.942 314.84 147.901 314.768C147.86 314.695 147.838 314.613 147.838 314.53V255.249L135.569 248.148L136.048 247.322L148.551 254.564C148.624 254.605 148.686 254.665 148.728 254.737C148.771 254.81 148.794 254.892 148.795 254.977V314.286L158.072 319.745L157.584 320.571Z" fill="white"/>
<path d="M160.323 317.701C161.309 318.345 162.129 319.212 162.717 320.232C163.305 321.253 163.645 322.397 163.709 323.572C163.709 325.73 162.18 326.602 160.295 325.514C159.309 324.87 158.489 324.002 157.901 322.982C157.313 321.962 156.973 320.818 156.909 319.642C156.918 317.485 158.447 316.613 160.323 317.701Z" fill="white"/>
<path d="M137.576 244.818C138.564 245.461 139.386 246.328 139.976 247.348C140.565 248.369 140.907 249.513 140.972 250.69C140.972 252.847 139.434 253.72 137.558 252.632C136.57 251.988 135.749 251.121 135.159 250.101C134.569 249.081 134.227 247.936 134.162 246.76C134.134 244.612 135.7 243.739 137.576 244.818Z" fill="white"/>
</g>
<path d="M403.453 123.441L403.434 127.549L375.547 111.444L375.556 107.335L403.453 123.441Z" fill="#90CAF9"/>
<path d="M403.462 117.25L403.453 121.368L392.112 114.811L392.122 110.703L403.462 117.25Z" fill="#90CAF9"/>
<path d="M357.219 102.945L357.209 107.045L337.127 95.4509L337.136 91.3518L357.219 102.945Z" fill="#90CAF9"/>
<path d="M369.347 103.752L369.337 107.861L337.145 89.2695L337.155 85.1704L369.347 103.752Z" fill="#90CAF9"/>
<path d="M386.709 107.579L386.7 111.697L354.845 93.3028L351.741 91.5113L336.948 82.9661L336.958 78.8483L351.75 87.3934L354.855 89.185L386.709 107.579Z" fill="#90CAF9"/>
<path d="M372.836 111.96L372.817 116.059L361.486 109.521L361.496 105.412L372.836 111.96Z" fill="#90CAF9"/>
<g opacity="0.6">
<path d="M403.453 123.441L403.434 127.549L375.547 111.444L375.556 107.335L403.453 123.441Z" fill="white"/>
<path d="M403.462 117.25L403.453 121.368L392.112 114.811L392.122 110.703L403.462 117.25Z" fill="white"/>
<path d="M357.219 102.945L357.209 107.045L337.127 95.4509L337.136 91.3518L357.219 102.945Z" fill="white"/>
<path d="M369.347 103.752L369.337 107.861L337.145 89.2695L337.155 85.1704L369.347 103.752Z" fill="white"/>
<path d="M386.709 107.579L386.7 111.697L354.845 93.3028L351.741 91.5113L336.948 82.9661L336.958 78.8483L351.75 87.3934L354.855 89.185L386.709 107.579Z" fill="white"/>
<path d="M372.836 111.96L372.817 116.059L361.486 109.521L361.496 105.412L372.836 111.96Z" fill="white"/>
</g>
<path d="M403.462 139.434L403.453 143.542L392.112 136.995L392.122 132.886L403.462 139.434Z" fill="#90CAF9"/>
<path d="M369.347 125.936L369.337 130.035L337.145 111.453L337.155 107.354L369.347 125.936Z" fill="#90CAF9"/>
<path d="M386.709 129.763L386.7 133.871L354.845 115.487L351.741 113.686L336.948 105.15L336.958 101.032L351.75 109.577L354.855 111.369L386.709 129.763Z" fill="#90CAF9"/>
<g opacity="0.6">
<path d="M403.462 139.434L403.453 143.542L392.112 136.995L392.122 132.886L403.462 139.434Z" fill="white"/>
<path d="M369.347 125.936L369.337 130.035L337.145 111.453L337.155 107.354L369.347 125.936Z" fill="white"/>
<path d="M386.709 129.763L386.7 133.871L354.845 115.487L351.741 113.686L336.948 105.15L336.958 101.032L351.75 109.577L354.855 111.369L386.709 129.763Z" fill="white"/>
</g>
<path d="M353.889 126.63C352.013 125.542 350.484 126.414 350.484 128.572C350.514 129.619 350.79 130.644 351.29 131.564L303.452 159.254L288.369 150.455C288.297 149.289 287.953 148.156 287.365 147.147C286.777 146.137 285.961 145.278 284.983 144.64C283.107 143.552 281.578 144.424 281.569 146.581C281.633 147.757 281.973 148.901 282.561 149.921C283.149 150.941 283.969 151.809 284.955 152.453C286.522 153.391 287.825 152.894 288.229 151.515L303.452 160.398L351.75 132.342C352.282 133.179 352.998 133.885 353.842 134.406C355.718 135.494 357.247 134.622 357.256 132.464C357.188 131.297 356.849 130.161 356.264 129.148C355.679 128.135 354.866 127.273 353.889 126.63Z" fill="url(#paint1_linear_224_15)"/>
<path d="M353.889 126.63C352.013 125.542 350.484 126.414 350.484 128.572C350.514 129.619 350.79 130.644 351.29 131.564L303.452 159.254L288.369 150.455C288.297 149.289 287.953 148.156 287.365 147.147C286.777 146.137 285.961 145.278 284.983 144.64C283.107 143.552 281.578 144.424 281.569 146.581C281.633 147.757 281.973 148.901 282.561 149.921C283.149 150.941 283.969 151.809 284.955 152.453C286.522 153.391 287.825 152.894 288.229 151.515L303.452 160.398L351.75 132.342C352.282 133.179 352.998 133.885 353.842 134.406C355.718 135.494 357.247 134.622 357.256 132.464C357.188 131.297 356.849 130.161 356.264 129.148C355.679 128.135 354.866 127.273 353.889 126.63Z" fill="url(#paint2_linear_224_15)"/>
<path d="M298.987 272.32C290.996 277.873 281.991 281.7 275.322 289.157C262.846 303.049 262.556 325.42 272.348 341.31C282.141 357.2 300.357 366.758 318.92 368.953C338.374 371.242 358.785 365.867 374.056 353.589C389.326 341.31 399.025 322.119 399.016 302.533C399.006 282.948 388.979 263.437 372.574 252.735C357.566 242.97 336.085 240.184 321.068 251.356C313.47 256.984 308.414 265.341 300.835 271.007C300.216 271.457 299.607 271.889 298.987 272.32Z" fill="#37474F"/>
<path opacity="0.2" d="M298.987 272.32C290.996 277.873 281.991 281.7 275.322 289.157C262.846 303.049 262.556 325.42 272.348 341.31C282.141 357.2 300.357 366.758 318.92 368.953C338.374 371.242 358.785 365.867 374.056 353.589C389.326 341.31 399.025 322.119 399.016 302.533C399.006 282.948 388.979 263.437 372.574 252.735C357.566 242.97 336.085 240.184 321.068 251.356C313.47 256.984 308.414 265.341 300.835 271.007C300.216 271.457 299.607 271.889 298.987 272.32Z" fill="black"/>
<path opacity="0.1" d="M298.987 272.32C290.996 277.873 281.991 281.7 275.322 289.157C262.846 303.049 262.556 325.42 272.348 341.31C282.141 357.2 300.357 366.758 318.92 368.953C338.374 371.242 358.785 365.867 374.056 353.589C389.326 341.31 399.025 322.119 399.016 302.533C399.006 282.948 388.979 263.437 372.574 252.735C357.566 242.97 336.085 240.184 321.068 251.356C313.47 256.984 308.414 265.341 300.835 271.007C300.216 271.457 299.607 271.889 298.987 272.32Z" fill="white"/>
<path opacity="0.1" d="M302.242 353.757L302.299 353.363C302.954 349.024 304.951 344.997 308.009 341.849C311.067 338.7 315.033 336.586 319.351 335.804C327.068 334.33 334.462 331.497 341.188 327.437C345.963 324.557 350.465 321.021 355.821 319.455C361.031 317.965 366.592 318.296 371.589 320.393C367.096 315.703 359.395 313.583 353.213 315.703C357.481 309.137 361.233 302.139 362.706 294.476C364.178 286.812 363.137 278.408 358.513 272.123C356.543 269.448 354.004 267.242 351.081 265.664C348.157 264.086 344.92 263.175 341.603 262.995C338.285 262.816 334.969 263.373 331.892 264.627C328.815 265.881 326.054 267.8 323.807 270.247C319.23 275.256 316.65 282.291 313.648 288.369C311.482 292.74 309.259 297.205 305.694 300.563C300.329 305.582 292.609 307.392 287.047 312.195C280.734 317.644 278.014 326.349 277.986 334.707C278.091 340.331 278.91 345.92 280.424 351.337C286.949 357.563 294.73 362.319 303.246 365.285C302.006 361.576 301.663 357.625 302.242 353.757Z" fill="black"/>
<g opacity="0.2">
<path d="M388.557 299.841C388.301 286.316 383.261 273.318 374.332 263.156C365.403 252.994 353.161 246.324 339.781 244.33C337.924 244.52 336.081 244.833 334.266 245.268C348.337 246.013 361.605 252.06 371.398 262.192C381.19 272.324 386.782 285.79 387.047 299.879C387.403 318.113 378.492 336.695 363.194 349.593C351.206 359.704 335.279 366.402 317.776 368.812L318.901 368.962C320.468 369.141 322.053 369.272 323.591 369.356C339.134 366.345 353.223 359.929 364.113 350.746C379.806 337.549 388.923 318.526 388.557 299.841Z" fill="white"/>
</g>
<path d="M281.869 347.67C282.431 350.672 282.745 353.715 282.807 356.768L284.964 355.952C285.987 355.566 287.1 355.489 288.166 355.731C289.232 355.973 290.203 356.523 290.958 357.312L291.071 357.425C291.455 357.829 291.981 358.069 292.539 358.096C293.096 358.122 293.642 357.932 294.063 357.566C294.289 357.37 294.472 357.13 294.601 356.86C294.73 356.591 294.803 356.298 294.813 355.999L295.104 346.807L281.869 347.67Z" fill="#FFA8A7"/>
<path d="M290.198 381.766C285.724 386.559 277.479 390.752 271.485 386.662L272.151 388.191C278.145 392.272 286.39 388.088 290.911 383.295C295.432 378.502 292.487 375.181 296.539 370.932C298.063 369.479 299.254 367.712 300.029 365.754C299.85 365.304 299.672 364.704 299.466 364.019C298.594 366.014 297.378 367.84 295.873 369.413C291.774 373.699 294.682 377.02 290.198 381.766Z" fill="#F5F5F5"/>
<path d="M297.196 359.048C296.509 358.066 296.027 356.956 295.78 355.783C295.74 355.51 295.64 355.249 295.488 355.019C295.335 354.789 295.134 354.595 294.898 354.451L294.851 355.999C294.836 356.428 294.696 356.842 294.446 357.191C294.197 357.54 293.85 357.807 293.449 357.96C293.048 358.112 292.611 358.142 292.193 358.047C291.775 357.952 291.394 357.736 291.099 357.425L290.986 357.312C290.231 356.523 289.26 355.973 288.194 355.731C287.128 355.489 286.015 355.566 284.993 355.952L282.798 356.778C282.472 356.901 282.193 357.123 281.998 357.412C281.803 357.701 281.702 358.043 281.71 358.391C281.85 364.676 278.896 373.014 275.838 377.601C272.677 378.915 269.938 383.229 271.335 386.381L271.476 386.7C277.47 390.79 285.715 386.597 290.189 381.804C294.663 377.01 291.765 373.699 295.817 369.45C297.322 367.877 298.538 366.051 299.41 364.057C298.905 362.293 298.16 360.608 297.196 359.048Z" fill="#455A64"/>
<path d="M288.426 368.118C288.606 368.207 288.815 368.221 289.006 368.158C289.197 368.095 289.356 367.959 289.448 367.78C289.541 367.605 289.561 367.4 289.503 367.21C289.445 367.02 289.314 366.861 289.139 366.767C287.825 366.026 286.342 365.636 284.833 365.636C283.325 365.636 281.842 366.026 280.528 366.767C280.396 367.265 280.256 367.752 280.106 368.24C281.364 367.503 282.791 367.104 284.25 367.083C285.708 367.061 287.146 367.418 288.426 368.118Z" fill="white"/>
<path d="M289.532 364.723C289.71 364.794 289.908 364.796 290.087 364.73C290.266 364.663 290.414 364.532 290.502 364.362C290.59 364.192 290.611 363.996 290.562 363.811C290.513 363.626 290.397 363.466 290.236 363.363C288.861 362.613 287.318 362.226 285.752 362.239C284.186 362.252 282.649 362.665 281.287 363.438C281.194 363.953 281.09 364.46 280.978 364.976C283.586 363.597 286.221 363.053 289.532 364.723Z" fill="white"/>
<path d="M287.216 371.504C287.397 371.592 287.607 371.605 287.798 371.54C287.989 371.475 288.147 371.338 288.238 371.157C288.328 370.98 288.345 370.775 288.285 370.586C288.225 370.396 288.094 370.238 287.919 370.144C286.634 369.416 285.186 369.026 283.709 369.011C282.232 368.997 280.776 369.357 279.477 370.06C279.29 370.594 279.083 371.11 278.877 371.626C280.137 370.886 281.568 370.485 283.03 370.464C284.492 370.442 285.934 370.801 287.216 371.504Z" fill="white"/>
<path d="M275.847 377.601C272.686 378.915 269.947 383.229 271.345 386.381L271.485 386.7C277.385 390.724 285.471 386.7 289.992 382.01C286.221 374.628 278.342 376.466 275.847 377.601Z" fill="white"/>
<path d="M285.893 374.806C286.071 374.877 286.268 374.88 286.447 374.813C286.627 374.747 286.775 374.615 286.863 374.446C286.95 374.276 286.972 374.079 286.923 373.894C286.874 373.71 286.757 373.55 286.597 373.446C285.311 372.719 283.862 372.331 282.385 372.318C280.909 372.305 279.453 372.667 278.155 373.371C277.882 373.952 277.61 374.515 277.329 375.059C279.946 373.68 282.582 373.127 285.893 374.806Z" fill="white"/>
<path d="M272.451 365.933C271.754 368.909 270.812 371.824 269.637 374.647L271.936 374.778C273.027 374.843 274.075 375.225 274.953 375.876C275.831 376.527 276.5 377.42 276.879 378.446V378.586C277.071 379.112 277.457 379.544 277.957 379.794C278.458 380.043 279.036 380.091 279.571 379.928C279.855 379.837 280.118 379.689 280.343 379.494C280.569 379.299 280.753 379.06 280.884 378.793L284.852 370.501L272.451 365.933Z" fill="#FFA8A7"/>
<path d="M266.298 400.526C260.267 403.106 251.028 403.612 247.201 397.449V399.119C251.028 405.272 260.267 404.747 266.298 402.196C272.33 399.644 270.988 395.414 276.41 393.153C278.389 392.435 280.19 391.3 281.691 389.823C281.691 389.326 281.794 388.717 281.878 388.004C280.278 389.481 278.426 390.66 276.41 391.484C271.007 393.744 272.33 397.956 266.298 400.526Z" fill="#F5F5F5"/>
<path d="M281.878 382.535C281.634 381.36 281.634 380.146 281.878 378.971C281.952 378.704 281.966 378.425 281.919 378.152C281.872 377.88 281.765 377.621 281.606 377.395L280.94 378.793C280.809 379.06 280.625 379.299 280.4 379.494C280.174 379.689 279.911 379.837 279.627 379.928C279.092 380.091 278.515 380.043 278.014 379.794C277.513 379.544 277.127 379.112 276.935 378.586V378.446C276.556 377.42 275.887 376.527 275.009 375.876C274.131 375.225 273.083 374.843 271.992 374.778L269.656 374.647C269.308 374.627 268.963 374.716 268.667 374.901C268.372 375.085 268.14 375.357 268.005 375.678C265.595 381.485 259.563 387.938 254.873 390.893C251.45 390.808 247.21 393.65 247.21 397.112V397.449C251.037 403.612 260.276 403.077 266.308 400.526C272.339 397.975 270.998 393.744 276.419 391.484C278.436 390.66 280.288 389.481 281.888 388.004C282.141 386.189 282.138 384.349 281.878 382.535Z" fill="#455A64"/>
<path d="M270.2 387.291C270.329 387.434 270.508 387.523 270.7 387.539C270.892 387.556 271.083 387.499 271.235 387.379C271.386 387.26 271.487 387.088 271.516 386.897C271.545 386.706 271.501 386.512 271.392 386.353C270.488 385.146 269.287 384.193 267.907 383.587C266.526 382.98 265.013 382.741 263.512 382.892C263.193 383.298 262.865 383.692 262.527 384.073C263.975 383.901 265.443 384.107 266.788 384.671C268.132 385.235 269.308 386.138 270.2 387.291Z" fill="white"/>
<path d="M272.583 384.627C272.711 384.782 272.896 384.881 273.096 384.9C273.297 384.919 273.497 384.858 273.652 384.73C273.806 384.603 273.904 384.422 273.927 384.225C273.949 384.027 273.895 383.828 273.774 383.67C272.821 382.427 271.565 381.449 270.127 380.829C268.689 380.208 267.115 379.966 265.557 380.124C265.266 380.556 264.957 380.987 264.619 381.41C267.593 381.203 270.228 381.766 272.583 384.627Z" fill="white"/>
<path d="M267.733 389.898C267.862 390.042 268.041 390.131 268.233 390.147C268.425 390.163 268.616 390.106 268.768 389.987C268.919 389.868 269.02 389.695 269.049 389.505C269.078 389.314 269.034 389.12 268.925 388.96C268.042 387.781 266.876 386.844 265.535 386.235C264.194 385.627 262.72 385.367 261.252 385.48C260.867 385.893 260.473 386.287 260.07 386.672C261.517 386.503 262.984 386.711 264.326 387.276C265.669 387.842 266.843 388.745 267.733 389.898Z" fill="white"/>
<path d="M254.864 390.893C251.44 390.808 247.201 393.65 247.201 397.112V397.449C250.953 403.518 259.985 403.077 266.017 400.639C265.557 392.356 257.603 390.855 254.864 390.893Z" fill="white"/>
<path d="M265.182 392.384C265.313 392.536 265.498 392.631 265.698 392.648C265.897 392.666 266.096 392.605 266.251 392.478C266.406 392.354 266.506 392.175 266.529 391.978C266.552 391.781 266.496 391.583 266.373 391.427C265.491 390.245 264.324 389.306 262.981 388.697C261.637 388.089 260.161 387.831 258.691 387.947C258.213 388.379 257.753 388.782 257.256 389.157C260.201 388.951 262.828 389.514 265.182 392.384Z" fill="white"/>
<path d="M307.889 287.478L277.695 304.297C274.964 305.826 272.78 308.171 271.448 311.003C270.116 313.836 269.702 317.014 270.266 320.093L276.128 351.656L271.326 366.917C275.472 372.48 284.983 372.761 284.983 372.761C290.292 362.115 294.194 357.594 297.177 348.673C300.16 339.753 302.205 333.59 302.205 333.59L327.278 326.743C333.011 325.185 338.146 321.944 342.019 317.437C345.892 312.931 348.324 307.367 349.002 301.464C349.433 297.665 349.452 295.076 349.452 295.076L307.889 287.478Z" fill="#90CAF9"/>
<path opacity="0.3" d="M307.889 287.478L277.695 304.297C274.964 305.826 272.78 308.171 271.448 311.003C270.116 313.836 269.702 317.014 270.266 320.093L276.128 351.656L271.326 366.917C275.472 372.48 284.983 372.761 284.983 372.761C290.292 362.115 294.194 357.594 297.177 348.673C300.16 339.753 302.205 333.59 302.205 333.59L327.278 326.743C333.011 325.185 338.146 321.944 342.019 317.437C345.892 312.931 348.324 307.367 349.002 301.464C349.433 297.665 349.452 295.076 349.452 295.076L307.889 287.478Z" fill="black"/>
<path opacity="0.1" d="M307.889 287.478L277.695 304.297C274.964 305.826 272.78 308.171 271.448 311.003C270.116 313.836 269.702 317.014 270.266 320.093L276.128 351.656L271.326 366.917C275.472 372.48 284.983 372.761 284.983 372.761C290.292 362.115 294.194 357.594 297.177 348.673C300.16 339.753 302.205 333.59 302.205 333.59L327.278 326.743C333.011 325.185 338.146 321.944 342.019 317.437C345.892 312.931 348.324 307.367 349.002 301.464C349.433 297.665 349.452 295.076 349.452 295.076L307.889 287.478Z" fill="#0078BB"/>
<path opacity="0.2" d="M308.114 295.958C308.116 299.328 309.313 302.588 311.491 305.16L290.189 318.498C287.063 320.453 284.748 323.47 283.67 326.996L276.166 351.656L282.966 324.192C283.75 321.032 285.74 318.305 288.51 316.594L308.208 304.4C306.126 299.41 308.114 295.958 308.114 295.958Z" fill="black"/>
<path d="M287.91 252.81L281.119 258.944C276.776 253.401 270.951 249.658 265.857 241.891C264.394 240.015 264.544 236.329 263.55 234.434C262.762 232.952 261.392 230.682 260.82 229.472C260.77 229.359 260.695 229.258 260.601 229.178C260.507 229.098 260.395 229.04 260.275 229.008C260.156 228.977 260.03 228.972 259.909 228.996C259.787 229.019 259.672 229.07 259.573 229.144C258.175 230.213 258.935 232.708 259.685 235.325C260.576 238.421 255.933 234.228 255.277 233.515C252.313 230.757 249.771 223.994 247.773 224.67C245.775 225.345 247.351 228.713 247.351 228.713C245.475 229.107 246.197 232.071 246.197 232.071C245.099 234.012 245.409 237.004 247.67 239.79C249.311 241.807 253.748 244.584 256.055 245.944C257.012 246.515 257.832 247.29 258.457 248.214L272.958 269.844C273.617 270.822 274.469 271.656 275.46 272.295C276.451 272.934 277.562 273.366 278.725 273.563C279.888 273.76 281.079 273.719 282.225 273.443C283.372 273.166 284.451 272.66 285.396 271.954L295.273 264.563L287.91 252.81Z" fill="#FFA8A7"/>
<path opacity="0.3" d="M287.91 252.81L281.119 258.944C276.776 253.401 270.951 249.658 265.857 241.891C264.394 240.015 264.544 236.329 263.55 234.434C262.762 232.952 261.392 230.682 260.82 229.472C260.77 229.359 260.695 229.258 260.601 229.178C260.507 229.098 260.395 229.04 260.275 229.008C260.156 228.977 260.03 228.972 259.909 228.996C259.787 229.019 259.672 229.07 259.573 229.144C258.175 230.213 258.935 232.708 259.685 235.325C260.576 238.421 255.933 234.228 255.277 233.515C252.313 230.757 249.771 223.994 247.773 224.67C245.775 225.345 247.351 228.713 247.351 228.713C245.475 229.107 246.197 232.071 246.197 232.071C245.099 234.012 245.409 237.004 247.67 239.79C249.311 241.807 253.748 244.584 256.055 245.944C257.012 246.515 257.832 247.29 258.457 248.214L272.958 269.844C273.617 270.822 274.469 271.656 275.46 272.295C276.451 272.934 277.562 273.366 278.725 273.563C279.888 273.76 281.079 273.719 282.225 273.443C283.372 273.166 284.451 272.66 285.396 271.954L295.273 264.563L287.91 252.81Z" fill="black"/>
<path d="M309.887 235.823C302.514 235.504 292.731 246.441 286.437 252.997C287.652 258.184 290.548 262.824 294.673 266.195C299.957 262.474 305.036 258.469 309.887 254.198V235.823Z" fill="#455A64"/>
<path opacity="0.3" d="M309.887 235.823C302.514 235.504 292.731 246.441 286.437 252.997C287.652 258.184 290.548 262.824 294.673 266.195C299.957 262.474 305.036 258.469 309.887 254.198V235.823Z" fill="white"/>
<path d="M349.958 297.43C344.602 302.58 318.882 303.527 305.76 291.033C307.017 282.207 306.595 272.761 305.76 263.419C304.925 254.076 299.456 237.727 309.887 235.823C323.816 233.102 332.915 233.318 342.229 238.562C352.163 255.136 350.812 279.899 349.958 297.43Z" fill="#455A64"/>
<path d="M349.958 297.43C344.602 302.58 318.882 303.527 305.76 291.033C307.017 282.207 306.595 272.761 305.76 263.419C304.925 254.076 299.456 237.727 309.887 235.823C323.816 233.102 332.915 233.318 342.229 238.562C352.163 255.136 350.812 279.899 349.958 297.43Z" fill="#455A64"/>
<path opacity="0.2" d="M349.958 297.43C344.602 302.58 318.882 303.527 305.76 291.033C307.017 282.207 306.595 272.761 305.76 263.419C304.925 254.076 299.456 237.727 309.887 235.823C323.816 233.102 332.915 233.318 342.229 238.562C352.163 255.136 350.812 279.899 349.958 297.43Z" fill="#A3A3A3"/>
<path d="M267.33 300.385L302.749 320.796L302.88 320.862H302.965L303.237 320.946H303.434H303.565H303.912C304.034 320.955 304.156 320.955 304.278 320.946H304.512L304.794 320.871C304.879 320.846 304.961 320.812 305.038 320.768L316.462 314.23L279.88 293.116L267.33 300.385Z" fill="#E0E0E0"/>
<path d="M301.023 294.767L294.363 298.687C294.26 298.745 294.173 298.83 294.113 298.932C294.053 299.034 294.022 299.15 294.022 299.269C294.022 299.387 294.053 299.504 294.113 299.606C294.173 299.708 294.26 299.793 294.363 299.851L304.325 305.6C304.494 305.699 304.687 305.751 304.883 305.751C305.079 305.751 305.272 305.699 305.441 305.6L312.101 301.689C312.202 301.629 312.286 301.544 312.344 301.442C312.402 301.34 312.433 301.225 312.433 301.107C312.433 300.99 312.402 300.875 312.344 300.773C312.286 300.671 312.202 300.586 312.101 300.526L302.139 294.767C301.97 294.668 301.777 294.616 301.581 294.616C301.385 294.616 301.192 294.668 301.023 294.767Z" fill="#E0E0E0"/>
<path opacity="0.4" d="M267.33 300.385L302.749 320.796L302.88 320.862H302.965L303.237 320.946H303.434H303.565H303.912C304.034 320.955 304.156 320.955 304.278 320.946H304.512L304.794 320.871C304.879 320.846 304.961 320.812 305.038 320.768L316.462 314.23L279.88 293.116L267.33 300.385Z" fill="black"/>
<path opacity="0.4" d="M301.023 294.767L294.363 298.687C294.26 298.745 294.173 298.83 294.113 298.932C294.053 299.034 294.022 299.15 294.022 299.269C294.022 299.387 294.053 299.504 294.113 299.606C294.173 299.708 294.26 299.793 294.363 299.851L304.325 305.6C304.494 305.699 304.687 305.751 304.883 305.751C305.079 305.751 305.272 305.699 305.441 305.6L312.101 301.689C312.202 301.629 312.286 301.544 312.344 301.442C312.402 301.34 312.433 301.225 312.433 301.107C312.433 300.99 312.402 300.875 312.344 300.773C312.286 300.671 312.202 300.586 312.101 300.526L302.139 294.767C301.97 294.668 301.777 294.616 301.581 294.616C301.385 294.616 301.192 294.668 301.023 294.767Z" fill="black"/>
<path d="M303.687 321.443L299.935 297.449C299.834 296.798 299.589 296.178 299.217 295.634C298.846 295.091 298.357 294.637 297.787 294.307L261.064 272.958C260.922 272.878 260.765 272.831 260.603 272.82C260.44 272.808 260.278 272.833 260.126 272.892L259.254 273.324L259.545 273.436C259.447 273.637 259.414 273.863 259.451 274.084L263.203 298.087C263.305 298.736 263.55 299.355 263.922 299.897C264.294 300.439 264.782 300.891 265.351 301.22L302.036 322.569C302.114 322.611 302.195 322.646 302.28 322.672V323.019L303.124 322.606C303.329 322.497 303.494 322.325 303.595 322.116C303.696 321.907 303.728 321.672 303.687 321.443Z" fill="#E0E0E0"/>
<path opacity="0.3" d="M303.687 321.443L299.935 297.449C299.834 296.798 299.589 296.178 299.217 295.634C298.846 295.091 298.357 294.637 297.787 294.307L261.064 272.958C260.922 272.878 260.765 272.831 260.603 272.82C260.44 272.808 260.278 272.833 260.126 272.892L259.254 273.324L259.545 273.436C259.447 273.637 259.414 273.863 259.451 274.084L263.203 298.087C263.305 298.736 263.55 299.355 263.922 299.897C264.294 300.439 264.782 300.891 265.351 301.22L302.036 322.569C302.114 322.611 302.195 322.646 302.28 322.672V323.019L303.124 322.606C303.329 322.497 303.494 322.325 303.595 322.116C303.696 321.907 303.728 321.672 303.687 321.443Z" fill="black"/>
<path d="M297.027 294.673L260.323 273.333C260.142 273.227 259.934 273.175 259.724 273.183C259.514 273.19 259.311 273.258 259.137 273.377C258.964 273.496 258.829 273.662 258.746 273.855C258.664 274.048 258.638 274.261 258.672 274.468L262.424 298.462C262.531 299.112 262.78 299.731 263.152 300.274C263.525 300.817 264.013 301.271 264.582 301.605L301.286 322.944C301.467 323.05 301.675 323.102 301.885 323.095C302.095 323.087 302.298 323.02 302.471 322.901C302.644 322.782 302.78 322.616 302.863 322.422C302.945 322.229 302.971 322.016 302.936 321.809L299.184 297.815C299.08 297.164 298.833 296.544 298.46 296.001C298.086 295.458 297.597 295.004 297.027 294.673Z" fill="#E0E0E0"/>
<path d="M279.243 295.292C280.173 295.876 280.975 296.642 281.601 297.545C282.226 298.448 282.662 299.468 282.882 300.545C283.126 302.421 281.888 303.115 280.068 302.083C279.138 301.501 278.336 300.736 277.71 299.835C277.085 298.933 276.649 297.914 276.429 296.84C276.222 294.964 277.47 294.279 279.243 295.292Z" fill="white"/>
<path d="M358.363 279.843L354.423 265.191L340.607 268.268L343.918 279.627L323.666 294.007L316.856 296.877C315.053 297.636 313.492 298.876 312.345 300.46L306.792 308.152C306.744 308.254 306.725 308.368 306.735 308.48C306.766 308.684 306.855 308.875 306.992 309.029C307.129 309.183 307.308 309.294 307.508 309.348C307.707 309.401 307.917 309.396 308.113 309.332C308.309 309.268 308.482 309.148 308.611 308.987C309.84 307.58 310.872 306.276 312.157 305.047L308.883 309.465C308.782 309.614 308.713 309.782 308.679 309.958C308.645 310.135 308.647 310.316 308.686 310.492C308.725 310.667 308.799 310.833 308.904 310.979C309.009 311.125 309.142 311.248 309.296 311.341C309.667 311.562 310.064 311.736 310.478 311.857C311.28 312.061 312.119 312.062 312.922 311.86C313.724 311.659 314.464 311.261 315.074 310.703L319.361 306.773L320.543 306.36C324.007 305.138 327.012 302.882 329.154 299.897L352.894 290.677C354.983 289.865 356.698 288.31 357.707 286.309C358.717 284.309 358.951 282.005 358.363 279.843Z" fill="#FFA8A7"/>
<path opacity="0.3" d="M358.363 279.843L354.423 265.191L340.607 268.268L343.918 279.627L323.666 294.007L316.856 296.877C315.053 297.636 313.492 298.876 312.345 300.46L306.792 308.152C306.744 308.254 306.725 308.368 306.735 308.48C306.766 308.684 306.855 308.875 306.992 309.029C307.129 309.183 307.308 309.294 307.508 309.348C307.707 309.401 307.917 309.396 308.113 309.332C308.309 309.268 308.482 309.148 308.611 308.987C309.84 307.58 310.872 306.276 312.157 305.047L308.883 309.465C308.782 309.614 308.713 309.782 308.679 309.958C308.645 310.135 308.647 310.316 308.686 310.492C308.725 310.667 308.799 310.833 308.904 310.979C309.009 311.125 309.142 311.248 309.296 311.341C309.667 311.562 310.064 311.736 310.478 311.857C311.28 312.061 312.119 312.062 312.922 311.86C313.724 311.659 314.464 311.261 315.074 310.703L319.361 306.773L320.543 306.36C324.007 305.138 327.012 302.882 329.154 299.897L352.894 290.677C354.983 289.865 356.698 288.31 357.707 286.309C358.717 284.309 358.951 282.005 358.363 279.843Z" fill="black"/>
<path d="M356.59 267.105L356.168 265.163C351.15 242.351 347.144 240.728 340.419 237.605C333.853 243.308 334.969 253.007 334.969 253.007L340.832 270.557L341.01 271.063C343.74 271.493 346.528 271.364 349.206 270.683C351.884 270.003 354.397 268.785 356.59 267.105Z" fill="#455A64"/>
<path opacity="0.3" d="M356.59 267.105L356.168 265.163C351.15 242.351 347.144 240.728 340.419 237.605C333.853 243.308 334.969 253.007 334.969 253.007L340.832 270.557L341.01 271.063C343.74 271.493 346.528 271.364 349.206 270.683C351.884 270.003 354.397 268.785 356.59 267.105Z" fill="#E0E0E0"/>
<path d="M331.058 219.351C332.457 215.216 333.194 210.885 333.243 206.519C333.243 204.193 333.009 201.651 331.367 199.954C329.407 197.946 326.049 197.965 323.544 199.231C321.04 200.498 319.201 202.739 317.438 204.916C318.306 208.714 319.603 212.402 321.303 215.909C322.184 217.616 323.254 219.351 324.961 220.224C326.668 221.096 329.538 220.533 331.058 219.351Z" fill="#455A64"/>
<path d="M318.667 246.15C315.299 248.279 310.928 244.33 314.84 238.571C314.865 238.542 314.881 238.506 314.887 238.468V228.872L327.587 221.865L327.878 234.688C326.518 238.655 321.593 244.293 318.667 246.15Z" fill="#FFA8A7"/>
<path opacity="0.3" d="M318.667 246.15C315.299 248.279 310.928 244.33 314.84 238.571C314.865 238.542 314.881 238.506 314.887 238.468V228.872L327.587 221.865L327.878 234.688C326.518 238.655 321.593 244.293 318.667 246.15Z" fill="black"/>
<path opacity="0.2" d="M321.424 231.939C319.305 232.962 316.659 233.994 314.858 234.659V228.872L327.559 221.865C327.484 228.215 324.951 230.232 321.424 231.939Z" fill="black"/>
<path d="M303.799 204.259C303.329 210.58 303.417 216.929 304.062 223.235C304.192 224.531 304.591 225.786 305.233 226.92C305.875 228.053 306.747 229.041 307.792 229.819C308.836 230.597 310.032 231.15 311.302 231.44C312.572 231.731 313.889 231.754 315.168 231.508C317.25 231.076 319.239 230.57 320.927 230.129C322.428 229.722 323.791 228.918 324.874 227.803C325.956 226.687 326.719 225.3 327.081 223.788L327.55 221.837C328.108 222.536 328.885 223.028 329.756 223.232C330.627 223.436 331.541 223.341 332.352 222.963C333.165 222.583 333.87 222.005 334.403 221.282C334.935 220.56 335.278 219.715 335.401 218.826C335.562 217.949 335.484 217.045 335.176 216.209C334.853 215.379 334.22 214.707 333.412 214.333C332.668 214.076 331.863 214.055 331.106 214.271C330.349 214.488 329.678 214.932 329.182 215.543C328.206 216.785 327.613 218.284 327.475 219.858C325.134 217.224 323.933 213.77 324.135 210.253C322.949 210.128 321.852 209.567 321.059 208.677C320.727 208.234 320.487 207.73 320.352 207.194C320.217 206.658 320.189 206.1 320.271 205.553C315.309 208.039 308.461 207.364 303.799 204.259Z" fill="#FFA8A7"/>
<path opacity="0.3" d="M303.799 204.259C303.329 210.58 303.417 216.929 304.062 223.235C304.192 224.531 304.591 225.786 305.233 226.92C305.875 228.053 306.747 229.041 307.792 229.819C308.836 230.597 310.032 231.15 311.302 231.44C312.572 231.731 313.889 231.754 315.168 231.508C317.25 231.076 319.239 230.57 320.927 230.129C322.428 229.722 323.791 228.918 324.874 227.803C325.956 226.687 326.719 225.3 327.081 223.788L327.55 221.837C328.108 222.536 328.885 223.028 329.756 223.232C330.627 223.436 331.541 223.341 332.352 222.963C333.165 222.583 333.87 222.005 334.403 221.282C334.935 220.56 335.278 219.715 335.401 218.826C335.562 217.949 335.484 217.045 335.176 216.209C334.853 215.379 334.22 214.707 333.412 214.333C332.668 214.076 331.863 214.055 331.106 214.271C330.349 214.488 329.678 214.932 329.182 215.543C328.206 216.785 327.613 218.284 327.475 219.858C325.134 217.224 323.933 213.77 324.135 210.253C322.949 210.128 321.852 209.567 321.059 208.677C320.727 208.234 320.487 207.73 320.352 207.194C320.217 206.658 320.189 206.1 320.271 205.553C315.309 208.039 308.461 207.364 303.799 204.259Z" fill="black"/>
<path d="M312.664 214.877L308.255 220.224L312.307 221.649L312.664 214.877Z" fill="#F28F8F"/>
<path opacity="0.3" d="M312.664 214.877L308.255 220.224L312.307 221.649L312.664 214.877Z" fill="black"/>
<path d="M316.003 224.304L312.598 225.345C312.814 225.748 313.155 226.069 313.569 226.26C313.984 226.451 314.45 226.502 314.896 226.405C315.295 226.236 315.622 225.935 315.824 225.552C316.026 225.169 316.089 224.728 316.003 224.304Z" fill="#F28F8F"/>
<path opacity="0.4" d="M316.003 224.304L312.598 225.345C312.814 225.748 313.155 226.069 313.569 226.26C313.984 226.451 314.45 226.502 314.896 226.405C315.295 226.236 315.622 225.935 315.824 225.552C316.026 225.169 316.089 224.728 316.003 224.304Z" fill="black"/>
<path d="M313.78 226.339C314.138 226.468 314.525 226.491 314.896 226.405C315.211 226.286 315.484 226.076 315.681 225.803C315.878 225.529 315.99 225.204 316.003 224.867C315.548 224.797 315.083 224.879 314.68 225.101C314.231 225.382 313.908 225.826 313.78 226.339Z" fill="#F28F8F"/>
<path d="M318.667 216.05C318.653 216.288 318.57 216.518 318.426 216.709C318.282 216.9 318.085 217.045 317.86 217.124C317.634 217.203 317.39 217.214 317.158 217.154C316.926 217.095 316.718 216.968 316.558 216.79C316.398 216.612 316.295 216.391 316.261 216.154C316.227 215.917 316.264 215.676 316.367 215.46C316.47 215.244 316.635 215.064 316.841 214.942C317.046 214.82 317.284 214.761 317.522 214.774C317.681 214.782 317.837 214.822 317.981 214.891C318.124 214.959 318.253 215.056 318.359 215.174C318.466 215.293 318.547 215.431 318.6 215.581C318.653 215.731 318.676 215.891 318.667 216.05Z" fill="#263238"/>
<path d="M308.536 215.112C308.525 215.351 308.443 215.581 308.3 215.774C308.157 215.966 307.961 216.112 307.735 216.193C307.51 216.274 307.265 216.286 307.033 216.227C306.8 216.169 306.591 216.043 306.43 215.865C306.269 215.687 306.165 215.466 306.13 215.229C306.096 214.992 306.132 214.75 306.235 214.533C306.338 214.317 306.503 214.136 306.709 214.014C306.915 213.891 307.153 213.833 307.392 213.845C307.711 213.862 308.011 214.005 308.225 214.242C308.44 214.48 308.552 214.792 308.536 215.112Z" fill="#263238"/>
<path d="M307.664 210.243L304.85 211.988C304.751 211.649 304.758 211.287 304.871 210.952C304.983 210.616 305.195 210.323 305.478 210.112C305.817 209.922 306.203 209.834 306.59 209.857C306.978 209.88 307.351 210.014 307.664 210.243Z" fill="#263238"/>
<path d="M317.982 210.647L320.571 212.645C320.692 212.325 320.717 211.977 320.642 211.643C320.567 211.31 320.395 211.006 320.149 210.769C319.833 210.552 319.464 210.426 319.082 210.405C318.7 210.383 318.32 210.467 317.982 210.647Z" fill="#263238"/>
<path d="M320.852 205.122C320.707 205.977 320.301 206.767 319.689 207.382C319.374 207.69 319.002 207.931 318.593 208.092C318.183 208.253 317.746 208.331 317.307 208.32C316.864 208.312 316.43 208.191 316.046 207.97C315.663 207.748 315.341 207.433 315.112 207.054C314.79 207.5 314.355 207.852 313.852 208.074C313.35 208.296 312.797 208.382 312.251 208.32C311.677 208.275 311.124 208.086 310.643 207.771C310.161 207.457 309.766 207.026 309.493 206.519C309.124 207.054 308.604 207.467 307.999 207.704C307.394 207.941 306.732 207.993 306.098 207.851C305.481 207.69 304.928 207.344 304.514 206.859C304.1 206.375 303.844 205.775 303.781 205.141C302.753 205.397 301.666 205.243 300.751 204.709C300.3 204.437 299.93 204.051 299.676 203.59C299.422 203.129 299.295 202.609 299.306 202.083C299.337 201.561 299.536 201.064 299.875 200.666C300.214 200.268 300.673 199.992 301.182 199.878C300.883 199.253 300.798 198.547 300.94 197.869C301.083 197.191 301.445 196.578 301.97 196.126C302.505 195.686 303.172 195.438 303.865 195.423C304.557 195.408 305.234 195.626 305.788 196.042C305.801 195.585 305.943 195.141 306.196 194.761C306.45 194.382 306.806 194.081 307.223 193.894C307.648 193.725 308.112 193.681 308.561 193.767C309.01 193.854 309.424 194.067 309.756 194.382C309.843 193.585 310.178 192.835 310.715 192.24C311.251 191.644 311.962 191.233 312.745 191.063C313.529 190.894 314.346 190.976 315.08 191.297C315.815 191.618 316.43 192.163 316.838 192.853C317.146 192.319 317.598 191.883 318.142 191.593C318.685 191.303 319.299 191.171 319.914 191.211C320.507 191.258 321.074 191.475 321.547 191.836C322.019 192.197 322.378 192.687 322.578 193.247C323.02 192.576 323.662 192.061 324.413 191.775C325.164 191.489 325.986 191.447 326.763 191.655C327.539 191.862 328.23 192.309 328.739 192.931C329.247 193.554 329.546 194.321 329.594 195.123C330.057 194.73 330.653 194.531 331.259 194.566C331.865 194.601 332.435 194.867 332.849 195.31C333.237 195.778 333.472 196.354 333.521 196.96C333.569 197.566 333.43 198.173 333.121 198.697C332.799 199.209 332.361 199.64 331.844 199.954C331.326 200.268 330.742 200.457 330.138 200.507C330.417 201.196 330.437 201.964 330.193 202.666C329.95 203.369 329.46 203.96 328.815 204.33C328.17 204.699 327.412 204.823 326.683 204.677C325.954 204.531 325.302 204.126 324.848 203.537C324.913 204.045 324.805 204.56 324.541 204.999C324.277 205.438 323.873 205.775 323.394 205.957C322.939 206.129 322.438 206.14 321.976 205.988C321.513 205.837 321.117 205.531 320.852 205.122Z" fill="#383838"/>
<defs>
<linearGradient id="paint0_linear_224_15" x1="89.4757" y1="298.337" x2="118.923" y2="334.804" gradientUnits="userSpaceOnUse">
<stop stop-color="#01D1FF"/>
<stop offset="1" stop-color="#F22982"/>
</linearGradient>
<linearGradient id="paint1_linear_224_15" x1="296.458" y1="131.493" x2="314.961" y2="170.473" gradientUnits="userSpaceOnUse">
<stop stop-color="#01D1FF"/>
<stop offset="1" stop-color="#F22982"/>
</linearGradient>
<linearGradient id="paint2_linear_224_15" x1="296.458" y1="131.493" x2="314.961" y2="170.473" gradientUnits="userSpaceOnUse">
<stop stop-color="#01D1FF"/>
<stop offset="1" stop-color="#F22982"/>
</linearGradient>
</defs>
</svg>
